<svg width="34" height="34" viewBox="0 0 34 34" fill="none" xmlns="http://www.w3.org/2000/svg">
<path d="M17 23.6663C20.6818 23.6663 23.6667 20.6815 23.6667 16.9997C23.6667 13.3178 20.6818 10.333 17 10.333C13.3181 10.333 10.3333 13.3178 10.3333 16.9997C10.3333 20.6815 13.3181 23.6663 17 23.6663Z" stroke="black" stroke-width="3" stroke-linecap="round" stroke-linejoin="round"/>
<path d="M2 23.6667V10.3333C2 5.73097 5.73097 2 10.3333 2H23.6667C28.269 2 32 5.73097 32 10.3333V23.6667C32 28.269 28.269 32 23.6667 32H10.3333C5.73097 32 2 28.269 2 23.6667Z" stroke="black" stroke-width="3"/>
<path d="M26.1667 7.85111L26.1838 7.83203" stroke="black" stroke-width="3" stroke-linecap="round" stroke-linejoin="round"/>
</svg>
