<svg width="50" height="50" viewBox="0 0 50 50" fill="none" xmlns="http://www.w3.org/2000/svg">
<path d="M46.3625 10.3278C41.987 7.82079 34.7704 8.24651 32.3196 11.1556C31.137 12.5599 30.185 13.8785 29.3425 15.0404C27.5154 17.5652 26.3181 19.2385 24.6359 19.274C23.5183 19.2977 21.913 17.5149 20.0564 15.4513C17.9514 13.1098 15.3291 10.1978 12.2367 8.65746C9.44285 7.26498 5.73551 8.13121 3.00674 10.8127C0.677085 13.1039 -1.12041 17.0094 0.830819 21.1011C3.97644 27.6998 13.4961 35.0318 17.5612 38.1656C17.9514 38.4642 18.2944 38.7303 18.5782 38.9491C20.4703 40.4332 23.2257 41.5448 26.2323 41.2847C28.1422 41.1191 30.1525 40.4007 32.1097 38.8722C32.7394 38.3785 33.4489 37.8552 34.2087 37.2905C38.9626 33.7694 46.1497 28.4478 49.4254 19.2444C50.7913 15.41 49.7033 12.2466 46.3625 10.3278Z" fill="#231F20"/>
</svg>
