<svg width="50" height="50" viewBox="0 0 50 50" fill="none" xmlns="http://www.w3.org/2000/svg">
<path d="M18.9339 26.9638C22.2116 24.5194 25.7354 25.313 27.9338 27.1146C30.1282 28.9162 37.5725 34.6225 39.8026 39.5947C42.0367 44.5668 36.0805 49.7374 32.1123 47.6462C28.148 45.5549 25.4735 40.1105 23.6164 40.1105C21.7592 40.1105 20.6839 42.6224 17.9974 45.666C15.3149 48.7136 4.04126 47.2851 6.78725 40.0946C9.53324 32.9042 15.6562 29.4082 18.9339 26.9638Z" fill="#231F20"/>
<path d="M3.42615 27.4205C8.44591 27.8451 13.3109 12.4127 5.96579 12.8809C-1.3833 13.3452 -1.59361 26.9959 3.42615 27.4205Z" fill="#231F20"/>
<path d="M19.4339 2.01155C27.2672 1.51156 25.2831 17.4043 18.7832 17.817C12.2872 18.2297 11.6007 2.50758 19.4339 2.01155Z" fill="#231F20"/>
<path d="M31.9454 2.66631C24.1162 3.16234 28.0923 18.6781 34.5922 18.2654C41.0882 17.8487 39.7786 2.17028 31.9454 2.66631Z" fill="#231F20"/>
<path d="M45.6558 33.4243C40.6241 33.1545 37.9297 17.2022 45.1399 18.6744C52.3541 20.1467 50.6874 33.6942 45.6558 33.4243Z" fill="#231F20"/>
</svg>
