<svg width="50" height="50" viewBox="0 0 50 50" fill="none" xmlns="http://www.w3.org/2000/svg">
<path d="M26.9213 49.1146C13.3693 49.9418 1.71342 39.6305 0.88625 26.0822C0.0553033 12.5338 10.3666 0.874071 23.9186 0.046895C37.4668 -0.784058 49.1227 9.52731 49.9537 23.0794C50.7808 36.6277 40.4695 48.2837 26.9213 49.1146Z" fill="#BF6420"/>
<path d="M48.7072 27.9329C48.541 27.9329 48.371 27.8838 48.2275 27.7742C37.8029 19.9557 28.0884 4.58308 27.6804 3.92965C27.4463 3.55572 27.5558 3.0647 27.9335 2.82675C28.3037 2.59257 28.7984 2.70588 29.0364 3.07981C29.1346 3.23467 39.004 18.8566 49.1869 26.4938C49.5419 26.7582 49.6137 27.2605 49.3493 27.6156C49.1906 27.8233 48.9489 27.9329 48.7072 27.9329Z" fill="#231F20"/>
<path d="M47.6724 33.8778C47.5554 33.8778 47.4383 33.8514 47.3287 33.7985C31.892 26.4974 19.6658 2.81529 19.1521 1.81059C18.9519 1.41778 19.1068 0.934315 19.5033 0.73413C19.8962 0.537724 20.3758 0.688806 20.5798 1.08162C20.7007 1.32335 33.0704 25.2888 48.0124 32.3519C48.4127 32.5407 48.5827 33.0204 48.3939 33.4208C48.2579 33.7078 47.9708 33.8778 47.6724 33.8778Z" fill="#231F20"/>
<path d="M40.5752 41.368C40.4883 41.368 40.4015 41.3529 40.3146 41.3226C19.8657 34.3162 10.3552 9.16477 9.96236 8.09586C9.80751 7.68038 10.019 7.22336 10.4345 7.0685C10.85 6.91364 11.3108 7.12893 11.4618 7.54063C11.5563 7.79747 21.1084 33.0547 40.8358 39.8118C41.2513 39.9516 41.4741 40.4086 41.3306 40.8241C41.2173 41.1564 40.9076 41.368 40.5752 41.368Z" fill="#231F20"/>
<path d="M5.81153 38.2706C5.50559 38.2706 5.21476 38.0968 5.08257 37.8022C4.89749 37.4019 5.07501 36.926 5.47915 36.7409C5.6038 36.688 17.8905 31.0413 20.693 26.8677C20.9423 26.5013 21.4409 26.4069 21.8035 26.6524C22.1699 26.8979 22.2681 27.3964 22.0226 27.7628C18.9669 32.3066 6.66514 37.9609 6.14391 38.1988C6.03438 38.2479 5.92107 38.2706 5.81153 38.2706Z" fill="#231F20"/>
<path d="M1.88692 31.0488C1.53943 31.0488 1.22216 30.8222 1.12018 30.4747C0.995538 30.0479 1.23727 29.606 1.6603 29.4813C6.81595 27.9743 16.5871 19.8272 16.6853 19.7441C17.0215 19.4608 17.5276 19.5023 17.8147 19.8423C18.0979 20.1822 18.0526 20.6883 17.7127 20.9716C17.301 21.3153 7.58268 29.4133 2.10976 31.0148C2.03422 31.0375 1.95868 31.0488 1.88692 31.0488Z" fill="#231F20"/>
<path d="M0.799335 21.4139C0.482063 21.4139 0.18368 21.225 0.0590369 20.9115C-0.107152 20.5036 0.0892524 20.039 0.50095 19.8728C2.60476 19.023 12.7952 13.0023 12.8972 12.9419C13.2786 12.7153 13.7697 12.8437 13.9963 13.2214C14.2191 13.6029 14.0945 14.0939 13.713 14.3205C13.29 14.5698 3.31484 20.462 1.09772 21.3572C0.999518 21.395 0.897537 21.4139 0.799335 21.4139Z" fill="#231F20"/>
<path d="M23.5256 37.3642C16.7798 37.3642 13.864 34.4332 13.7091 34.2746C13.4032 33.9535 13.4145 33.4474 13.7318 33.1415C14.0491 32.8393 14.5552 32.8468 14.8611 33.1603C14.9178 33.217 19.284 37.4775 29.8975 34.9582C30.3167 34.8487 30.7549 35.1206 30.8606 35.5512C30.9626 35.9818 30.6944 36.4124 30.2676 36.5144C27.6917 37.1263 25.4519 37.3642 23.5256 37.3642Z" fill="#231F20"/>
<path d="M23.4992 44.0269C16.3758 44.0269 11.3221 40.7786 8.94633 39.2527C8.50819 38.9732 8.00963 38.6483 7.85855 38.5992C7.44685 38.4633 7.20134 38.0213 7.32598 37.6059C7.45063 37.1942 7.85099 36.9487 8.2778 37.0582C8.63661 37.1526 9.05586 37.4208 9.81127 37.908C13.086 40.0118 21.7807 45.5981 34.0296 39.9741C34.4337 39.7852 34.9059 39.9627 35.0909 40.3669C35.276 40.7673 35.0985 41.2394 34.6981 41.4245C30.5585 43.3281 26.8041 44.0269 23.4992 44.0269Z" fill="#231F20"/>
<path d="M37.7915 16.1635C37.6027 16.1635 37.41 16.0993 37.2589 15.9633C36.9303 15.6725 36.9001 15.1664 37.191 14.834C38.6262 13.2098 43.7366 9.49322 43.9556 9.33837C44.3107 9.07775 44.8092 9.15329 45.0736 9.51589C45.3305 9.87093 45.2549 10.3695 44.8961 10.6301C44.8432 10.6679 39.7102 14.3996 38.3883 15.8953C38.2296 16.0729 38.0106 16.1635 37.7915 16.1635Z" fill="#231F20"/>
<path d="M41.7952 20.6469C41.5761 20.6469 41.3608 20.5563 41.2022 20.3825C40.9076 20.0539 40.9302 19.5516 41.2588 19.2532C42.4637 18.1616 47.5627 14.7094 47.778 14.5621C48.1444 14.3128 48.6391 14.411 48.8884 14.7774C49.1377 15.14 49.0395 15.6423 48.6769 15.8879C48.624 15.9218 43.4533 19.4232 42.3315 20.4392C42.1804 20.579 41.9878 20.6469 41.7952 20.6469Z" fill="#231F20"/>
<path d="M33.7386 10.94C33.58 10.94 33.4176 10.8947 33.2778 10.7965C32.9152 10.5396 32.8284 10.0448 33.0852 9.68223C34.0521 8.30738 39.0302 5.38394 40.0198 4.8136C40.3938 4.59076 40.8885 4.71918 41.1114 5.10444C41.3305 5.48592 41.202 5.97316 40.8206 6.196C38.6488 7.45376 34.985 9.75777 34.3921 10.6038C34.2372 10.8229 33.9879 10.94 33.7386 10.94Z" fill="#231F20"/>
<path d="M45.3944 38.4859C45.2811 38.4859 45.164 38.4632 45.0545 38.4104C21.8937 27.5098 14.7589 2.85692 14.6909 2.61141C14.5701 2.18461 14.8193 1.74269 15.2424 1.6256C15.6692 1.50096 16.1111 1.75402 16.2282 2.17705C16.2962 2.41878 23.2497 26.3804 45.7343 36.9638C46.1347 37.1526 46.3084 37.6285 46.1196 38.0289C45.9836 38.3159 45.6966 38.4859 45.3944 38.4859Z" fill="#231F20"/>
</svg>
