<svg width="326" height="544" viewBox="0 0 326 544" fill="none" xmlns="http://www.w3.org/2000/svg">
<g clip-path="url(#clip0_60_883)">
<path d="M219.189 7.34312C218.733 11.0582 221.408 14.3698 225.174 14.8322C228.94 15.2946 232.287 12.6662 232.743 8.95105C233.199 5.23594 230.879 -0.958956 227.106 -1.36594C223.34 -1.82838 219.645 3.628 219.189 7.34312Z" fill="#D0A0C9"/>
<path d="M178.703 2.48436C179.159 -1.23076 176.831 -7.37021 173.065 -7.83264C169.299 -8.29508 165.605 -2.8387 165.149 0.876416C164.692 4.59153 167.36 7.95851 171.133 8.3655C174.9 8.82793 178.303 6.20637 178.703 2.48436Z" fill="#D0A0C9"/>
<path d="M209.973 1.53965C214.358 2.07801 218.391 -1.02902 218.929 -5.40953C219.404 -9.74148 216.651 -17.0589 212.266 -17.5973C207.818 -18.0871 203.433 -11.6462 202.902 -7.32116C202.42 -2.93375 205.533 0.994393 209.973 1.53965Z" fill="#D0A0C9"/>
<path d="M197.955 -7.92833C198.486 -12.2534 195.733 -19.5708 191.285 -20.0607C186.901 -20.599 182.515 -14.1581 181.984 -9.83306C181.446 -5.45256 184.615 -1.51751 189.055 -0.972249C193.44 -0.433891 197.473 -3.54092 197.955 -7.92833Z" fill="#D0A0C9"/>
<path d="M218.549 26.9642C219.003 24.6561 218.826 22.3829 218.102 20.3802C218.102 20.3802 217.18 14.4133 202.731 4.75927C202.135 4.34835 201.501 3.93283 200.83 3.51271C199.823 2.88252 198.586 2.73068 197.457 3.09858C196.704 3.34386 195.989 3.59373 195.311 3.8482C178.998 9.83777 176.66 15.4043 176.66 15.4043C175.522 17.2346 174.807 19.342 174.746 21.6984C174.489 27.9709 179.048 33.5963 185.359 34.709C188.873 35.3656 192.283 34.546 194.966 32.6803C195.394 32.4513 195.956 32.5204 196.259 32.839C198.474 35.2498 201.584 36.87 205.153 37.083C211.552 37.4748 217.28 33.1124 218.549 26.9642Z" fill="#D0A0C9"/>
</g>
<g clip-path="url(#clip1_60_883)">
<path d="M286.968 96.9749C285.522 98.9654 286.005 101.722 288.022 103.188C290.04 104.654 292.802 104.209 294.249 102.219C295.695 100.228 296.335 95.9271 294.295 94.4906C292.277 93.0245 288.415 94.9843 286.968 96.9749Z" fill="#D0A0C9"/>
<path d="M265.239 81.2785C266.686 79.2879 267.304 75.0164 265.286 73.5502C263.268 72.0841 259.405 74.0439 257.959 76.0345C256.513 78.0251 256.974 80.8111 259.013 82.2475C261.031 83.7137 263.823 83.291 265.239 81.2785Z" fill="#D0A0C9"/>
<path d="M283.519 90.7013C285.869 92.4081 289.178 91.9072 290.883 89.5601C292.536 87.2208 293.285 82.1362 290.936 80.4294C288.535 78.7303 283.961 81.0358 282.277 83.3532C280.602 85.7222 281.14 88.9725 283.519 90.7013Z" fill="#D0A0C9"/>
<path d="M279.627 81.4276C281.311 79.1102 282.06 74.0256 279.659 72.3266C277.309 70.6198 272.735 72.9252 271.051 75.2426C269.346 77.5897 269.914 80.8619 272.293 82.5907C274.643 84.2975 277.952 83.7966 279.627 81.4276Z" fill="#D0A0C9"/>
<path d="M280.347 108.052C281.344 106.87 281.966 105.506 282.188 104.124C282.188 104.124 283.56 100.399 278.329 90.2442C278.117 89.8179 277.885 89.3771 277.633 88.9216C277.255 88.2384 276.593 87.757 275.826 87.6086C275.315 87.5097 274.824 87.4254 274.353 87.3556C263.066 85.6005 259.947 88.0557 259.947 88.0557C258.71 88.7455 257.627 89.7291 256.841 91.0645C254.695 94.589 255.523 99.2761 258.797 101.927C260.608 103.425 262.83 104.04 264.967 103.822C265.285 103.827 265.587 104.046 265.659 104.326C266.164 106.418 267.436 108.34 269.42 109.6C272.975 111.865 277.658 111.182 280.347 108.052Z" fill="#D0A0C9"/>
</g>
<g clip-path="url(#clip2_60_883)">
<path d="M179.963 117.252C179.834 119.709 181.74 121.758 184.231 121.888C186.722 122.019 188.796 120.142 188.925 117.685C189.054 115.227 187.248 111.272 184.755 111.178C182.264 111.047 180.092 114.795 179.963 117.252Z" fill="#D0A0C9"/>
<path d="M153.191 115.922C153.32 113.465 151.512 109.546 149.021 109.415C146.53 109.285 144.358 113.032 144.229 115.489C144.1 117.947 146.004 120.032 148.497 120.126C150.988 120.257 153.099 118.381 153.191 115.922Z" fill="#D0A0C9"/>
<path d="M173.654 113.869C176.553 114.021 179.056 111.799 179.208 108.901C179.32 106.039 177.179 101.367 174.279 101.215C171.34 101.097 168.76 105.522 168.61 108.383C168.495 111.282 170.717 113.715 173.654 113.869Z" fill="#D0A0C9"/>
<path d="M165.338 108.211C165.488 105.351 163.347 100.678 160.408 100.561C157.508 100.409 154.928 104.834 154.778 107.694C154.626 110.592 156.884 113.027 159.821 113.181C162.721 113.333 165.224 111.11 165.338 108.211Z" fill="#D0A0C9"/>
<path d="M180.443 130.148C180.635 128.614 180.415 127.131 179.848 125.851C179.848 125.851 178.97 121.98 169.052 116.312C168.642 116.07 168.207 115.827 167.748 115.582C167.059 115.215 166.241 115.172 165.517 115.465C165.035 115.66 164.577 115.857 164.144 116.055C153.722 120.731 152.444 124.488 152.444 124.488C151.782 125.741 151.409 127.155 151.477 128.704C151.597 132.828 154.844 136.308 159.034 136.749C161.368 137.018 163.567 136.324 165.24 134.978C165.51 134.808 165.882 134.827 166.095 135.023C167.658 136.502 169.772 137.422 172.122 137.398C176.337 137.361 179.893 134.238 180.443 130.148Z" fill="#D0A0C9"/>
</g>
<g clip-path="url(#clip3_60_883)">
<path d="M249.904 213.075C248.428 216.728 250.245 220.824 253.948 222.32C257.652 223.817 261.771 222.056 263.247 218.403C264.722 214.75 264.051 207.819 260.325 206.377C256.622 204.881 251.38 209.422 249.904 213.075Z" fill="#D0A0C9"/>
<path d="M210.063 197.106C211.539 193.453 210.845 186.576 207.142 185.08C203.438 183.584 198.196 188.125 196.72 191.778C195.244 195.431 197.039 199.581 200.764 201.023C204.468 202.519 208.642 200.781 210.063 197.106Z" fill="#D0A0C9"/>
<path d="M242.114 204.664C246.426 206.406 251.373 204.346 253.113 200.039C254.776 195.764 253.97 187.573 249.659 185.832C245.27 184.122 239.057 189.476 237.338 193.729C235.653 198.058 237.748 202.9 242.114 204.664Z" fill="#D0A0C9"/>
<path d="M232.474 191.763C234.193 187.511 233.387 179.32 228.998 177.611C224.687 175.869 218.473 181.223 216.755 185.476C215.014 189.783 217.164 194.647 221.531 196.411C225.842 198.153 230.789 196.093 232.474 191.763Z" fill="#D0A0C9"/>
<path d="M243.907 232.851C244.998 230.628 245.437 228.268 245.246 226.035C245.246 226.035 245.934 219.717 233.874 205.965C233.379 205.384 232.848 204.789 232.28 204.179C231.428 203.264 230.212 202.773 228.964 202.839C228.131 202.884 227.336 202.943 226.577 203.017C208.36 204.662 204.466 209.685 204.466 209.685C202.81 211.236 201.509 213.184 200.805 215.563C198.835 221.871 201.938 228.832 208.052 231.683C211.446 233.308 215.136 233.404 218.372 232.238C218.869 232.121 219.422 232.345 219.643 232.751C221.238 235.806 223.959 238.3 227.53 239.489C233.93 241.631 240.942 238.756 243.907 232.851Z" fill="#D0A0C9"/>
</g>
<g clip-path="url(#clip4_60_883)">
<path d="M144.526 262.273C145.696 265.32 149.111 266.775 152.201 265.589C155.29 264.404 156.791 261.009 155.621 257.961C154.452 254.914 150.128 251.094 147.056 252.325C143.966 253.511 143.356 259.225 144.526 262.273Z" fill="#D0A0C9"/>
<path d="M111.359 275.108C110.19 272.061 105.884 268.286 102.794 269.472C99.7045 270.658 99.0939 276.372 100.264 279.42C101.434 282.468 104.867 283.968 107.939 282.736C111.028 281.551 112.575 278.138 111.359 275.108Z" fill="#D0A0C9"/>
<path d="M135.053 261.577C138.65 260.197 140.483 256.153 139.104 252.559C137.696 249.029 132.58 244.522 128.983 245.902C125.357 247.346 124.617 254.102 125.979 257.65C127.405 261.225 131.41 262.976 135.053 261.577Z" fill="#D0A0C9"/>
<path d="M121.921 259.207C120.559 255.659 115.443 251.152 111.818 252.596C108.221 253.976 107.481 260.732 108.843 264.28C110.222 267.873 114.273 269.606 117.916 268.208C121.513 266.827 123.347 262.783 121.921 259.207Z" fill="#D0A0C9"/>
<path d="M152.066 277.644C151.471 275.681 150.404 274.003 149.027 272.757C149.027 272.757 145.873 268.54 130.794 267.022C130.167 266.95 129.508 266.889 128.82 266.841C127.786 266.767 126.772 267.157 126.053 267.903C125.574 268.4 125.125 268.885 124.707 269.359C114.598 280.65 115.076 285.894 115.076 285.894C114.95 287.769 115.262 289.685 116.18 291.524C118.55 296.46 124.364 298.925 129.68 297.198C132.654 296.264 134.945 294.237 136.247 291.702C136.482 291.351 136.943 291.174 137.307 291.295C140 292.245 143.058 292.219 145.894 290.921C150.982 288.603 153.607 282.898 152.066 277.644Z" fill="#D0A0C9"/>
</g>
<g clip-path="url(#clip5_60_883)">
<path d="M188.325 353.74C186.492 355.707 186.648 358.761 188.641 360.62C190.635 362.479 193.69 362.364 195.524 360.398C197.358 358.431 198.625 353.851 196.604 352.022C194.61 350.162 190.159 351.774 188.325 353.74Z" fill="#D0A0C9"/>
<path d="M166.847 333.821C168.681 331.855 169.921 327.304 167.927 325.445C165.934 323.586 161.483 325.197 159.649 327.163C157.815 329.13 157.944 332.213 159.965 334.043C161.958 335.902 165.043 335.815 166.847 333.821Z" fill="#D0A0C9"/>
<path d="M185.42 346.476C187.741 348.64 191.397 348.538 193.559 346.219C195.664 343.902 197.154 338.486 194.833 336.322C192.455 334.159 187.186 336.051 185.051 338.34C182.919 340.687 183.069 344.284 185.42 346.476Z" fill="#D0A0C9"/>
<path d="M182.433 335.899C184.568 333.609 186.058 328.194 183.679 326.031C181.359 323.867 176.09 325.758 173.955 328.048C171.793 330.367 171.973 333.992 174.324 336.184C176.644 338.348 180.301 338.245 182.433 335.899Z" fill="#D0A0C9"/>
<path d="M179.668 364.873C180.907 363.724 181.764 362.328 182.189 360.858C182.189 360.858 184.172 357.001 179.851 345.289C179.678 344.799 179.485 344.289 179.273 343.762C178.954 342.971 178.299 342.36 177.487 342.097C176.946 341.922 176.425 341.765 175.924 341.627C163.914 338.219 160.204 340.467 160.204 340.467C158.77 341.051 157.465 341.973 156.434 343.317C153.637 346.854 153.911 352.048 157.109 355.36C158.874 357.225 161.202 358.189 163.549 358.237C163.894 358.285 164.192 358.562 164.233 358.876C164.502 361.212 165.626 363.467 167.61 365.098C171.164 368.028 176.335 367.911 179.668 364.873Z" fill="#D0A0C9"/>
</g>
<g clip-path="url(#clip6_60_883)">
<path d="M163.922 515.021C162.088 516.988 162.244 520.042 164.238 521.901C166.231 523.76 169.287 523.645 171.12 521.679C172.954 519.712 174.221 515.132 172.2 513.302C170.207 511.443 165.756 513.055 163.922 515.021Z" fill="#D0A0C9"/>
<path d="M142.444 495.102C144.277 493.135 145.517 488.585 143.524 486.726C141.53 484.866 137.079 486.478 135.245 488.444C133.411 490.411 133.54 493.494 135.561 495.324C137.555 497.183 140.64 497.096 142.444 495.102Z" fill="#D0A0C9"/>
<path d="M161.016 507.757C163.337 509.921 166.993 509.819 169.156 507.5C171.261 505.183 172.75 499.767 170.429 497.603C168.051 495.44 162.783 497.332 160.648 499.621C158.515 501.968 158.666 505.565 161.016 507.757Z" fill="#D0A0C9"/>
<path d="M158.03 497.18C160.164 494.89 161.654 489.475 159.276 487.312C156.955 485.148 151.687 487.039 149.552 489.329C147.389 491.647 147.569 495.272 149.92 497.464C152.241 499.629 155.897 499.526 158.03 497.18Z" fill="#D0A0C9"/>
<path d="M155.265 526.154C156.504 525.005 157.36 523.609 157.785 522.139C157.785 522.139 159.769 518.282 155.448 506.57C155.275 506.079 155.082 505.57 154.869 505.043C154.55 504.251 153.896 503.641 153.084 503.378C152.543 503.203 152.022 503.046 151.52 502.907C139.51 499.5 135.801 501.748 135.801 501.748C134.367 502.332 133.061 503.254 132.031 504.598C129.233 508.135 129.507 513.329 132.705 516.641C134.471 518.506 136.798 519.47 139.145 519.518C139.491 519.566 139.788 519.843 139.83 520.157C140.099 522.493 141.223 524.748 143.207 526.378C146.761 529.308 151.932 529.192 155.265 526.154Z" fill="#D0A0C9"/>
</g>
<g clip-path="url(#clip7_60_883)">
<path d="M98.4726 411.794C98.4726 416.331 102.179 419.92 106.779 419.92C111.378 419.92 115.016 416.263 115.016 411.727C115.016 407.19 111.309 400.08 106.71 400.148C102.111 400.148 98.4726 407.257 98.4726 411.794Z" fill="#D0A0C9"/>
<path d="M49.0481 411.93C49.0481 407.393 45.3412 400.351 40.742 400.351C36.1428 400.351 32.5046 407.461 32.5046 411.997C32.5046 416.534 36.2114 420.191 40.8106 420.123C45.4099 420.123 49.1167 416.466 49.0481 411.93Z" fill="#D0A0C9"/>
<path d="M86.5283 406.174C91.8826 406.174 96.2759 401.84 96.2759 396.491C96.2073 391.209 91.814 382.813 86.4596 382.813C81.0367 382.881 76.712 391.277 76.712 396.559C76.7807 401.908 81.1053 406.174 86.5283 406.174Z" fill="#D0A0C9"/>
<path d="M70.6713 396.559C70.6713 391.277 66.278 382.881 60.855 382.948C55.5007 382.948 51.176 391.345 51.176 396.626C51.176 401.976 55.5693 406.242 60.9923 406.242C66.3466 406.242 70.7399 401.908 70.6713 396.559Z" fill="#D0A0C9"/>
<path d="M100.601 435.494C100.807 432.65 100.257 429.941 99.0904 427.639C99.0904 427.639 97.0997 420.597 78.2909 411.117C77.5129 410.711 76.6892 410.305 75.8197 409.898C74.5154 409.289 73.0052 409.289 71.701 409.898C70.8315 410.305 70.0077 410.711 69.2297 411.117C50.4896 420.732 48.4989 427.775 48.4989 427.775C47.4006 430.145 46.8514 432.785 47.126 435.629C47.7438 443.213 54.0592 449.307 61.8161 449.714C66.1407 449.985 70.1221 448.495 73.0739 445.854C73.5544 445.516 74.2408 445.516 74.6527 445.854C77.6731 448.427 81.6545 449.917 85.9792 449.646C93.7361 449.172 99.9828 443.078 100.601 435.494Z" fill="#D0A0C9"/>
</g>
<defs>
<clipPath id="clip0_60_883">
<rect width="68.5746" height="55.7169" fill="white" transform="translate(167.533 -23.1084) rotate(7)"/>
</clipPath>
<clipPath id="clip1_60_883">
<rect width="45.078" height="36.6259" fill="white" transform="translate(266.974 63.0046) rotate(36)"/>
</clipPath>
<clipPath id="clip2_60_883">
<rect width="45.078" height="36.6259" fill="white" transform="translate(152.171 93.6208) rotate(22)"/>
</clipPath>
<clipPath id="clip3_60_883">
<rect width="72.1824" height="58.6482" fill="white" transform="translate(205.679 168.041) rotate(22)"/>
</clipPath>
<clipPath id="clip4_60_883">
<rect width="59.8067" height="48.5929" fill="white" transform="translate(92.2794 259.974) rotate(-21)"/>
</clipPath>
<clipPath id="clip5_60_883">
<rect width="49.2622" height="40.0255" fill="white" transform="translate(171.162 314.231) rotate(43)"/>
</clipPath>
<clipPath id="clip6_60_883">
<rect width="49.2622" height="40.0255" fill="white" transform="translate(146.759 475.512) rotate(43)"/>
</clipPath>
<clipPath id="clip7_60_883">
<rect width="83.1172" height="67.5327" fill="white" transform="translate(31.8302 382.79)"/>
</clipPath>
</defs>
</svg>
