<svg width="200" height="165" viewBox="0 0 200 165" fill="none" xmlns="http://www.w3.org/2000/svg">
<path d="M37.4013 148.102C37.1188 148.964 36.4384 149.396 35.708 149.858C33.2651 151.405 33.9167 154.623 33.8379 157.069C33.8244 157.443 33.784 157.799 33.7206 158.138C33.2651 160.527 31.5545 162.079 29.1635 162.975C26.8513 163.839 24.4007 164.327 21.9348 164.442C19.3477 164.562 16.7338 164.263 14.237 163.57C9.05334 162.127 4.42318 158.805 2.22823 153.758C0.56183 149.924 0.162049 145.365 1.48056 141.368C2.00143 139.796 2.81829 138.333 3.82735 137.023C7.14092 132.732 12.4342 129.981 17.7467 129.197C20.4394 128.803 23.1303 128.895 25.773 129.558C26.613 129.771 27.4298 130.056 28.3024 130.151C29.7094 130.303 31.2893 129.783 32.4751 130.798C33.0902 131.328 33.4823 132.069 33.7322 132.834C34.1319 134.064 34.3164 135.197 34.426 136.507C34.476 137.119 34.5029 137.697 34.4894 138.425C34.4741 139.153 34.451 140.261 33.7898 140.821C33.1267 141.382 32.5194 141.784 31.5391 141.626C29.7267 141.33 29.2461 140.399 28.2678 138.546C27.5874 137.254 26.7187 136.016 25.5059 135.172C23.3993 133.704 20.4279 133.504 18.1926 134.798C15.79 136.191 14.5426 139.117 13.9199 141.703C12.6091 147.148 13.7316 154.804 19.5168 157.266C20.7258 157.782 22.3941 158.019 23.3398 156.898C24.0298 156.077 24.1239 154.881 24.1874 153.882C24.1874 153.876 24.3104 151.88 23.8875 150.983C23.5127 150.18 22.6075 149.933 21.7714 149.91C21.2544 149.897 20.7662 150.035 20.2568 149.864C19.4438 149.59 19.1286 149.111 19.0037 148.498C18.8749 147.884 19.1747 147.533 19.4996 147.142C19.8244 146.749 20.2607 146.503 20.7143 146.295C22.7113 145.386 24.8543 145.374 26.9897 145.355C29.7555 145.334 32.3579 145.355 35.1179 145.517C35.6619 145.548 36.0886 145.484 36.6844 145.89C37.2821 146.295 37.6761 147.239 37.4013 148.102Z" fill="#231F20"/>
<path d="M53.1792 152.195C53.1831 152.019 53.0236 151.861 52.8467 151.867C49.9887 151.99 47.9513 153.691 47.9513 156.711C47.9513 158.423 48.8297 159.502 50.1002 159.502C52.3835 159.502 53.1408 156.253 53.1792 152.195ZM66.7238 158.886C66.7238 161.611 63.0027 164.573 59.5219 164.573C55.7548 164.573 55.6587 162.137 54.467 162.137C53.5021 162.137 52.6046 163 51.7358 163.375C50.9132 163.73 50.0463 163.982 49.168 164.146C47.3574 164.483 45.4585 164.465 43.6633 164.046C40.0441 163.202 37.1957 160.556 37.1957 156.659C37.1957 151.565 41.4953 148.235 52.9351 148.235C52.8371 144.413 52.0568 143.531 50.0521 143.531C47.2652 143.531 47.2652 147.204 43.3058 147.204C40.6169 147.204 39.2004 145.981 39.2004 144.315C39.2004 141.474 42.8657 139.614 51.1746 139.614C57.5749 139.614 63.3026 141.124 63.8792 147.878C63.9253 148.142 63.9368 148.918 63.9368 149.018V153.564C63.9368 153.966 63.9503 154.375 63.9657 154.779C64.4615 159.951 66.7257 156.586 66.7238 158.886Z" fill="#231F20"/>
<path d="M87.0376 158.545C87.0376 161.674 81.9327 164.427 77.4102 164.427C75.1288 164.427 69.3992 163.383 69.3992 155.842V146.278C69.3992 144.845 67.7309 145.128 66.8333 144.702C66.1529 144.377 65.509 143.806 65.3226 143.05C64.8998 141.324 66.6142 140.521 67.8674 139.887C69.4742 139.074 70.9349 137.974 72.1554 136.649C73.2356 135.478 74.3254 134.288 75.936 133.912C76.8778 133.693 77.8696 133.764 78.8287 133.762C79.5168 133.762 80.0684 134.371 80.0684 135.058V139.392C80.0684 139.9 80.4797 140.313 80.9852 140.313H84.785C85.7653 140.313 86.5591 141.108 86.5591 142.088V143.242C86.5591 144.223 85.7672 145.018 84.7889 145.018H80.9852C80.4797 145.018 80.0684 145.428 80.0684 145.937V153.824C80.1549 156.726 81.3504 157.456 82.5151 157.456C83.9009 157.456 84.7062 156.364 85.5135 156.364C86.4091 156.364 87.0357 157.691 87.0376 158.545Z" fill="#231F20"/>
<path d="M104.526 161.451C104.526 164.65 98.7735 164.411 96.7458 164.411C94.6239 164.411 88.0198 164.65 88.0198 161.26C88.0198 159.789 90.2147 159.723 90.6145 158.443C90.8048 157.828 90.9047 156.79 90.9605 155.608V147.25C90.9605 144.512 88.1255 145.586 88.1255 143.335C88.1255 142.062 89.592 141.231 91.4967 141.035C93.8896 140.788 98.2872 139.615 99.2636 139.615C100.728 139.615 101.705 140.592 101.705 144.117V157.06C101.726 157.628 101.772 158.175 101.883 158.541C102.318 159.98 104.524 159.718 104.526 161.451Z" fill="#231F20"/>
<path d="M136.28 161.983C136.28 164.635 128.953 164.413 128.953 164.413C128.953 164.413 121.807 164.608 121.807 161.983C121.807 160.026 123.668 160.808 123.668 158.212V148.61C123.668 146.357 122.931 144.592 121.027 144.592C119.12 144.592 118.388 146.357 118.388 148.61V158.212C118.388 160.808 120.246 160.026 120.246 161.983C120.246 164.722 112.843 164.413 112.843 164.413C112.843 164.413 105.775 164.55 105.775 161.983C105.775 160.026 107.634 160.808 107.634 158.212V147.728C107.634 144.396 105.241 145.767 105.241 143.71C105.241 142.437 106.365 141.802 108.906 140.968C110.077 140.577 113.696 139.598 114.968 139.598C116.777 139.598 117.069 141.164 117.313 142.83C119.414 140.48 122.055 139.598 124.988 139.598C131.44 139.598 134.425 143.419 134.425 149.542V158.213C134.425 160.81 136.282 160.028 136.28 161.983Z" fill="#231F20"/>
<path d="M169.412 161.436C169.412 164.635 163.657 164.398 161.63 164.398C159.51 164.398 153.807 164.645 153.807 161.255C153.807 159.781 155.102 159.708 155.502 158.427C155.641 157.988 155.729 157.32 155.79 156.553V148.608C155.79 146.357 155.058 144.594 153.155 144.594C151.249 144.594 150.518 146.357 150.518 148.608V157.004C150.538 157.586 150.584 158.152 150.697 158.525C151.076 159.777 152.667 159.985 152.667 161.455C152.667 164.656 147.583 164.398 145.558 164.398C143.436 164.398 136.833 164.635 136.833 161.245C136.833 159.774 139.028 159.708 139.428 158.427C139.619 157.822 139.717 156.805 139.772 155.648V137.356C139.772 134.615 136.941 135.694 136.941 133.442C136.941 132.169 137.671 131.484 139.578 131.287C141.971 131.043 147.099 129.721 148.075 129.721C149.54 129.721 150.518 130.702 150.518 134.224V141.561C152.519 140.384 154.914 139.602 157.111 139.602C163.559 139.602 166.536 143.419 166.536 149.538V153.604L166.585 155.324C166.585 156.185 166.536 157.761 166.773 158.525C167.042 159.415 167.982 159.623 168.653 160.107C169.114 160.438 169.414 160.858 169.412 161.436Z" fill="#231F20"/>
<path d="M187.517 151.258C186.474 146.49 184.836 144.33 182.607 144.818C180.373 145.307 179.787 147.957 180.829 152.726C181.868 157.495 183.51 159.656 185.739 159.169C187.969 158.678 188.559 156.027 187.517 151.258ZM199.23 151.992C199.182 160.026 191.359 164.386 184.175 164.386C176.987 164.386 169.166 160.026 169.116 151.992C169.166 143.959 176.987 139.598 184.175 139.598C191.358 139.598 199.18 143.959 199.23 151.992Z" fill="#231F20"/>
<path d="M35.6504 110.967C35.6504 115.965 32.875 120.174 28.635 122.66C26.786 123.749 24.7506 124.506 22.6632 124.985C20.9008 125.39 19.0249 125.596 17.1682 125.594C16.1091 125.592 15.052 125.521 14.0295 125.382C11.0465 124.975 8.15964 124.091 5.24777 123.35C4.57891 123.18 3.86199 122.98 3.41993 122.448C3.12778 122.1 2.99324 121.649 2.86638 121.212C2.55309 120.135 2.23788 119.061 1.92459 117.982C1.3499 116.021 0.0948222 112.699 3.24502 112.699C8.00972 112.699 7.01604 120.465 16.3859 120.465C20.7835 120.465 23.088 117.945 23.088 115.636C23.088 108.5 1.30954 113.537 1.30954 98.9506C1.30954 91.1867 8.21922 85.5203 18.2733 85.5203C21.1295 85.5203 23.9837 86.1867 26.8302 85.8092C28.0219 85.6532 29.3269 85.3797 30.3494 86.0095C31.5757 86.7626 32.1734 88.5307 32.5847 89.8346C33.2997 92.1035 34.5567 98.2149 30.63 98.2149C26.7033 98.2149 28.5389 89.8211 20.0032 89.8211C15.867 89.8211 13.8777 91.7106 13.8777 93.966C13.8777 101.732 35.66 97.2172 35.6504 110.967Z" fill="#231F20"/>
<path d="M54.8188 111.732C54.8207 111.534 54.6419 111.356 54.442 111.364C51.2169 111.501 48.9181 113.421 48.9181 116.826C48.9181 118.76 49.908 119.977 51.3437 119.977C53.9193 119.977 54.7726 116.31 54.8188 111.732ZM70.0989 119.28C70.0989 122.356 65.9012 125.7 61.9745 125.7C57.7249 125.7 57.6153 122.949 56.2718 122.949C55.182 122.949 54.1691 123.924 53.187 124.348C52.2605 124.746 51.2822 125.031 50.2924 125.216C48.2493 125.598 46.1062 125.576 44.0804 125.103C39.9961 124.151 36.7825 121.166 36.7825 116.77C36.7825 111.021 41.6337 107.263 54.542 107.263C54.4324 102.953 53.5521 101.957 51.2899 101.957C48.1436 101.957 48.1436 106.102 43.6768 106.102C40.6438 106.102 39.0428 104.721 39.0428 102.839C39.0428 99.6363 43.179 97.5369 52.5546 97.5369C59.7776 97.5369 66.2394 99.2395 66.8891 106.863C66.941 107.159 66.9544 108.034 66.9544 108.149V113.277C66.9544 113.729 66.9717 114.191 66.9871 114.648C67.5464 120.484 70.1027 116.688 70.0989 119.28Z" fill="#231F20"/>
<path d="M89.1826 122.187C89.1826 123.429 88.41 124.203 87.3087 124.696C87.2721 124.712 87.2414 124.733 87.201 124.744C85.0964 125.638 81.877 125.53 80.399 125.53C78.0022 125.53 70.5486 125.8 70.5486 121.971C70.5486 120.309 73.0261 120.234 73.4778 118.789C73.6892 118.113 73.8007 116.982 73.8641 115.692V94.9984C73.8641 91.9013 70.6658 93.1167 70.6658 90.5762C70.6658 89.1374 72.3188 88.1994 74.4695 87.9779C77.1719 87.7006 82.1365 86.3735 83.2378 86.3735C84.8927 86.3735 85.9959 87.481 85.9959 91.4583V117.146C86.0151 117.814 86.0689 118.467 86.2016 118.897C86.6898 120.522 89.1807 120.228 89.1826 122.187Z" fill="#231F20"/>
<path d="M121.548 100.166C121.548 100.973 120.425 101.83 119.074 103.119C118.695 103.479 118.534 104.265 118.355 104.723C117.909 105.873 112.42 120.513 111.176 122.358C110.471 123.406 109.606 124.336 108.307 124.675C107.302 124.937 106.221 124.914 105.189 124.914C103.588 124.914 101.603 124.685 100.496 123.435C99.1848 121.952 98.293 119.694 97.405 117.938C95.531 114.24 93.9089 110.418 92.0925 106.691C91.5179 105.509 91.1142 104.399 90.0917 103.502C89.198 102.718 88.2081 101.545 88.2081 100.33C88.2081 98.7176 89.5593 98.29 92.1444 98.29H102.266C104.853 98.29 105.75 99.2569 105.75 100.492C105.75 101.256 105.308 101.95 104.786 102.504C104.188 103.134 103.569 103.723 103.909 104.634C104.121 105.203 104.353 105.765 104.572 106.331C105.12 107.759 105.666 109.184 106.216 110.611C106.694 111.855 107.175 113.098 107.651 114.342L111.313 104.388C111.322 104.359 111.33 104.328 111.34 104.299C111.497 103.854 111.716 103.46 111.42 103.024C111.132 102.599 110.517 102.404 110.087 102.142C109.412 101.728 108.753 101.218 108.753 100.382C108.753 99.0393 109.766 98.29 111.226 98.29H118.912C120.262 98.29 121.553 99.0431 121.548 100.166Z" fill="#231F20"/>
<path d="M132.657 105.969C132.657 107.905 134.614 107.473 136.113 107.473C137.67 107.473 139.513 107.795 139.513 105.863C139.513 103.929 138.246 102.427 136.113 102.427C134.21 102.427 132.655 104.251 132.657 105.969ZM150.23 117.603C150.509 118.712 150.107 120.095 149.225 121.041C149.167 121.104 149.086 121.162 149.025 121.222C149.023 121.225 149.021 121.231 149.015 121.235C148.994 121.258 148.963 121.276 148.94 121.299C148.646 121.586 148.32 121.867 147.951 122.133C147.712 122.308 147.457 122.468 147.197 122.628C147.013 122.739 146.832 122.855 146.632 122.965C146.284 123.153 145.93 123.329 145.567 123.492C145.385 123.575 145.208 123.66 145.018 123.743C144.629 123.905 144.251 124.049 143.87 124.186C143.682 124.255 143.52 124.33 143.326 124.398C141.141 125.151 138.865 125.532 136.564 125.532C136.541 125.532 136.516 125.53 136.491 125.53C136.482 125.53 136.47 125.532 136.459 125.532C128.386 125.532 120.26 120.91 120.26 111.998C120.26 111.975 120.264 111.952 120.264 111.926C120.264 111.892 120.26 111.857 120.26 111.822C120.26 103.556 127.81 97.5408 136.455 97.5408C146.253 97.5408 150.574 104.573 150.574 108.6C150.574 112.144 148.846 112.628 147.003 112.628H134.496C134.043 112.628 133.585 112.601 133.132 112.626C133.128 112.626 133.122 112.628 133.118 112.628H133.349C133.147 112.643 133.018 112.68 132.978 112.745C132.926 112.832 132.936 113.051 132.938 113.134C132.974 114.074 133.137 114.925 133.422 115.659C133.622 116.181 133.889 116.649 134.218 117.057C135.288 118.381 137.106 119.141 139.203 119.141C139.995 119.141 140.795 119.024 141.514 118.804C142.25 118.577 143.001 118.178 143.874 117.545C144.106 117.377 144.327 117.194 144.549 117.009C145.069 116.578 145.608 116.131 146.278 115.85C146.663 115.69 147.068 115.607 147.487 115.607C147.814 115.607 148.133 115.657 148.439 115.755C149.373 116.052 150.009 116.707 150.23 117.603Z" fill="#231F20"/>
<path d="M171.93 129.627C171.93 130.363 171.28 130.732 169.808 131.216C169.129 131.441 167.032 132.009 166.296 132.009C165.249 132.009 165.078 131.102 164.937 130.137C163.719 131.499 162.191 132.009 160.492 132.009C156.753 132.009 155.024 129.796 155.024 126.249V125.062L155.02 125.06V122.054C155.02 120.465 153.378 121.091 153.378 119.785C153.378 119.047 154.228 118.566 155.331 118.45C156.719 118.309 159.267 117.628 159.834 117.628C160.684 117.628 161.251 118.196 161.251 120.239V123.098H161.255V126.788C161.255 128.092 161.681 129.115 162.785 129.115C163.613 129.115 164.067 128.467 164.226 127.718C164.27 127.516 164.295 127.31 164.32 127.102V122.054C164.32 120.465 162.677 121.091 162.677 119.785C162.677 119.047 163.529 118.566 164.632 118.45C166.018 118.309 168.568 117.628 169.135 117.628C169.985 117.628 170.552 118.196 170.552 120.239V124.392C170.598 124.694 170.561 125.029 170.552 125.33V127.352C170.579 129.203 171.932 128.448 171.93 129.627Z" fill="#231F20"/>
<path d="M199.343 130.665C199.343 132.246 195.163 132.081 195.163 132.081C195.163 132.081 190.913 132.19 190.913 130.665C190.913 129.523 191.996 129.979 191.996 128.781V123.101C191.996 121.16 191.511 120.532 190.571 120.532C189.631 120.532 189.147 121.16 189.147 123.101V128.781C189.147 129.407 189.614 129.61 189.906 130.101C190.05 130.343 190.097 130.646 190.027 130.919C189.803 131.828 188.472 131.929 187.704 132.011C187.167 132.069 186.627 132.086 186.089 132.081C185.453 132.1 184.811 132.069 184.181 131.99C183.312 131.884 181.93 131.696 182.051 130.505C182.091 130.114 182.264 129.839 182.549 129.596C182.793 129.384 182.881 129.099 182.881 128.781V123.101C182.881 121.16 182.397 120.532 181.457 120.532C180.517 120.532 180.035 121.16 180.035 123.101V128.781C180.035 129.138 180.146 129.429 180.433 129.646C180.809 129.935 181.115 130.149 181.115 130.665C181.115 132.279 176.781 132.081 176.781 132.081C176.781 132.081 172.685 132.244 172.685 130.665C172.685 130.195 172.927 129.954 173.283 129.706C173.613 129.475 173.767 129.192 173.767 128.781V122.416C173.767 120.361 172.429 121.416 172.429 120.105C172.429 119.305 173.825 118.905 174.422 118.677C175.278 118.336 177.271 117.622 178.184 117.622C179.264 117.622 179.435 118.679 179.579 119.506C180.688 118.25 182.37 117.622 184.05 117.622C185.672 117.622 187.383 118.363 188.18 119.846C189.205 118.25 191.142 117.622 192.937 117.622C196.384 117.622 198.261 119.334 198.261 122.759V128.781C198.261 129.979 199.343 129.523 199.343 130.665Z" fill="#231F20"/>
<path d="M100.519 130.809C99.45 130.066 97.5876 130.016 96.8937 130.709C96.5593 131.044 96.2844 131.362 96.0423 131.643C95.5175 132.252 95.1735 132.657 94.741 132.628C94.4527 132.608 94.0799 132.115 93.6493 131.543C93.1592 130.892 92.5519 130.085 91.7907 129.619C91.1046 129.199 90.134 129.34 89.3728 129.97C88.7232 130.507 88.1754 131.472 88.5867 132.568C89.2479 134.336 91.5293 136.435 92.5038 137.331C92.5961 137.418 92.6787 137.493 92.746 137.556C93.1996 137.98 93.8838 138.329 94.6603 138.329C95.1562 138.329 95.6886 138.188 96.2229 137.838C96.3978 137.724 96.59 137.607 96.7976 137.477C98.0969 136.678 100.061 135.469 101.107 133.173C101.543 132.216 101.334 131.378 100.519 130.809Z" fill="#231F20"/>
<path d="M169.029 7.27816C166.838 2.59593 161.843 1.07242 159.06 0.581273C155.323 -0.0774376 151.404 0.276957 147.727 1.60786C144.001 2.9561 140.791 5.20188 138.446 8.10637C136.043 11.0802 134.61 14.7455 134.294 18.7035C133.981 22.6307 134.833 26.5695 136.693 29.7957C137.135 30.5622 138.279 32.0915 138.335 32.1416C138.454 32.2668 138.613 32.3265 138.777 32.3169C138.88 32.3111 138.986 32.2764 139.08 32.2129C139.297 32.0607 141.354 31.7872 141.652 31.6736C141.944 31.5676 142.082 31.271 141.979 30.9821C141.931 30.8492 141.884 30.7125 141.817 30.516C140.699 27.2571 139.688 22.3361 141.219 17.3899C142.394 13.6033 144.931 10.487 148.181 8.83827C151.41 7.20112 155.343 7.29742 158.449 9.10021C159.215 9.54513 159.907 10.0921 160.505 10.7239C161.107 11.3595 161.578 12.1222 161.991 12.7944L162.12 13.0005C162.894 14.2659 163.861 15.8375 165.475 16.2054C167.486 16.6619 169.012 14.9901 169.573 13.2335C170.152 11.4211 169.954 9.25237 169.029 7.27816Z" fill="#231F20"/>
<path d="M193.143 81.6663C191.669 82.0168 190.214 82.4579 188.79 82.9875C188.472 83.107 188.307 82.6062 188.622 82.4887C190.081 81.9455 191.571 81.4968 193.082 81.1405C192.934 80.1158 192.649 79.0584 192.255 77.9894C190.938 79.3589 189.551 80.6589 188.094 81.8781C187.834 82.0958 187.548 81.6547 187.806 81.4409C189.295 80.1928 190.71 78.86 192.047 77.4521C191.488 76.0576 190.754 74.6516 189.914 73.2802C189.147 75.8843 188.146 78.4112 186.918 80.8304C186.766 81.1328 186.299 80.892 186.451 80.5896C187.679 78.1743 188.678 75.6531 189.437 73.051C189.47 72.9355 189.558 72.8758 189.653 72.8623C188.182 70.5317 186.429 68.3206 184.734 66.4678C185.436 67.4597 186.047 68.5171 186.556 69.6246C186.698 69.9327 186.199 70.0945 186.058 69.7921C185.549 68.6827 184.93 67.6234 184.215 66.6334C183.596 65.7744 182.906 64.9693 182.149 64.2297C181.788 63.8734 181.38 63.4535 180.873 63.3206C180.3 63.1684 179.969 63.5825 179.706 64.0275C179.32 64.6785 178.926 65.3256 178.609 66.0132C178.203 66.8857 177.947 67.8102 177.798 68.7598C177.784 68.8407 177.707 68.9351 177.625 68.9524C177.321 69.0198 177.021 69.0988 176.721 69.1816C172.745 70.2717 168.843 72.0379 165.6 74.6111C165.516 74.6785 165.352 74.667 165.279 74.588C163.455 72.5965 160.763 71.5487 158.08 71.7798C157.616 74.3126 157.457 76.8877 157.603 79.459C157.622 79.7961 157.099 79.823 157.08 79.486C156.926 76.8068 157.101 74.1161 157.599 71.4774C157.622 71.36 157.73 71.2848 157.841 71.2714C160.645 70.9613 163.525 72.011 165.481 74.0429C166.569 73.1955 167.726 72.4405 168.931 71.7741C170.803 70.7378 172.781 69.8904 174.811 69.2143C175.631 68.9389 176.468 68.6808 177.313 68.4882C177.507 67.3672 177.857 66.2887 178.384 65.2794C178.584 64.8961 178.803 64.5263 179.024 64.1565C179.249 63.7732 179.456 63.3418 179.806 63.0548C180.196 62.7332 180.613 62.7043 181.017 62.8256C178.224 60.262 175.872 57.9354 174.03 54.1718C171.874 49.765 171.962 44.6398 169.79 40.2484C167.765 36.1498 164.23 32.8292 160.134 30.8531C154.426 28.0969 142.059 25.7317 134.189 33.5804C126.964 40.6201 125.407 52.3614 127.875 61.7855C130.112 70.3199 138.452 79.1451 146.938 85.0946C146.93 85.0658 146.924 85.0369 146.913 85.008L146.891 84.956C146.888 84.9463 146.88 84.9309 146.876 84.9252L146.834 84.8577C146.832 84.8539 146.815 84.8327 146.805 84.8211C146.795 84.8096 146.776 84.7884 146.772 84.7845L146.711 84.7306C146.599 84.6401 146.538 84.5842 146.63 84.4822C146.726 84.3743 146.795 84.696 146.905 84.7845C147.082 84.929 147.087 84.6863 147.151 84.9059C147.203 85.0889 147.495 85.2815 147.474 85.4702C149.553 86.8974 151.635 88.1494 153.63 89.176C153.472 88.575 153.315 87.978 153.15 87.3886C153.059 87.0631 153.557 86.8974 153.647 87.2229C153.859 87.9779 154.061 88.7368 154.264 89.4938C154.376 89.5496 154.489 89.6074 154.599 89.6613C155.986 90.3354 156.969 91.4641 157.832 92.6968C161.597 91.6124 165.354 90.5069 169.116 89.4109C169.441 89.3166 169.606 89.8154 169.283 89.9098C165.57 90.9922 161.86 92.0824 158.145 93.1533C158.648 93.9044 159.123 94.6787 159.631 95.401C160.061 96.0135 160.561 96.5643 161.118 97.0631C163.846 95.1987 166.573 93.3343 169.3 91.4699C169.579 91.2792 169.867 91.7183 169.589 91.909C166.902 93.7446 164.217 95.582 161.53 97.4175C162.204 97.9607 162.946 98.4326 163.746 98.8313C168.96 101.428 176.487 100.99 181.371 98.3863C181.338 98.1918 181.597 97.9799 181.811 98.1398C181.811 98.1417 181.811 98.1417 181.813 98.1437C182.28 97.8721 182.722 97.5813 183.127 97.2692C186.187 94.9272 188.74 93.1186 190.516 90.7919C190.446 90.7476 190.375 90.7014 190.304 90.6552C190.022 90.4741 190.26 90.0061 190.544 90.1871C190.639 90.2468 190.731 90.3104 190.825 90.3701C192.126 88.5192 192.953 86.3196 193.174 83.2803C193.21 82.7564 193.197 82.2152 193.143 81.6663Z" fill="white"/>
<path d="M135.54 47.9198C120.341 53.9561 135.484 71.7432 137.712 73.9504C139.939 76.1596 143.143 84.1585 150.91 79.0083C158.679 73.8561 145.938 69.8807 149.065 60.9091C152.194 51.9356 148.156 43.9945 135.54 47.9198Z" fill="#231F20"/>
<path d="M169.104 89.4147C165.343 90.5106 161.583 91.6142 157.82 92.7005C157.72 92.7294 157.618 92.7583 157.516 92.7872C157.194 92.8816 157.359 93.3804 157.684 93.286C157.834 93.2437 157.984 93.1994 158.132 93.157C161.849 92.0842 165.558 90.994 169.272 89.9116C169.594 89.8172 169.429 89.3184 169.104 89.4147Z" fill="#231F20" stroke="#231F20" stroke-width="0.156843" stroke-miterlimit="10"/>
<path d="M169.287 91.4736C166.56 93.3381 163.832 95.2006 161.105 97.0669C161.099 97.0708 161.093 97.0746 161.086 97.0785C160.809 97.2691 161.095 97.7083 161.376 97.5176C161.422 97.4849 161.47 97.4521 161.518 97.4213C164.203 95.5838 166.89 93.7483 169.577 91.9109C169.854 91.7221 169.568 91.281 169.287 91.4736Z" fill="#231F20" stroke="#231F20" stroke-width="0.156843" stroke-miterlimit="10"/>
<path d="M170.035 93.1069C168.593 95.0984 167.152 97.0919 165.712 99.0834C165.516 99.355 165.904 99.7094 166.102 99.4359C167.542 97.4424 168.983 95.449 170.425 93.4574C170.621 93.1859 170.233 92.8315 170.035 93.1069Z" fill="#231F20" stroke="#231F20" stroke-width="0.156843" stroke-miterlimit="10"/>
<path d="M189.449 73.0529C188.692 75.655 187.69 78.1781 186.464 80.5934C186.31 80.8957 186.777 81.1346 186.931 80.8322C188.159 78.415 189.161 75.8861 189.926 73.2821C189.937 73.2435 189.951 73.205 189.962 73.1646C190.024 72.9565 189.833 72.8391 189.664 72.8641C189.57 72.8795 189.484 72.9373 189.449 73.0529Z" fill="#231F20" stroke="#231F20" stroke-width="0.156843" stroke-miterlimit="10"/>
<path d="M188.106 81.8819C189.564 80.6627 190.95 79.3607 192.267 77.9913C192.815 77.4212 193.353 76.8415 193.874 76.2463C194.097 75.9921 193.706 75.6396 193.483 75.8958C193.02 76.4254 192.544 76.9435 192.059 77.4539C190.721 78.8619 189.307 80.1966 187.817 81.4428C187.56 81.6566 187.846 82.0996 188.106 81.8819Z" fill="#231F20" stroke="#231F20" stroke-width="0.156843" stroke-miterlimit="10"/>
<path d="M197.862 80.3391C196.255 80.5047 194.664 80.7744 193.093 81.1442C191.582 81.5005 190.093 81.9493 188.636 82.4924C188.321 82.6099 188.484 83.1087 188.801 82.9913C190.227 82.4597 191.681 82.0186 193.155 81.6681C194.713 81.2983 196.295 81.0286 197.891 80.8649C198.225 80.8302 198.198 80.3044 197.862 80.3391Z" fill="#231F20" stroke="#231F20" stroke-width="0.156843" stroke-miterlimit="10"/>
<path d="M185.715 104.919C185.592 104.848 185.424 104.912 185.361 105.033C185.294 105.166 185.351 105.314 185.474 105.387C185.793 105.574 185.989 105.952 186.026 106.318C186.064 106.718 185.955 107.092 185.653 107.371C185.549 107.468 185.574 107.654 185.674 107.743C185.788 107.845 185.939 107.818 186.043 107.722C186.868 106.963 186.66 105.476 185.715 104.919Z" fill="#231F20" stroke="#231F20" stroke-width="0.156843" stroke-miterlimit="10"/>
<path d="M183.643 106.181C183.812 106.449 183.971 106.718 184.085 107.007C184.123 107.109 184.16 107.213 184.185 107.319L184.194 107.362C184.196 107.371 184.198 107.389 184.2 107.396C184.206 107.441 184.212 107.485 184.213 107.529C184.213 107.566 184.206 107.608 184.212 107.641C184.212 107.643 184.212 107.643 184.212 107.645L184.206 107.693C184.2 107.728 184.19 107.762 184.181 107.795L184.171 107.832C184.121 107.943 184.066 108.051 184.004 108.157C183.931 108.28 183.996 108.45 184.117 108.512C184.248 108.579 184.398 108.521 184.469 108.398C184.634 108.119 184.752 107.832 184.736 107.502C184.709 106.921 184.383 106.37 184.081 105.892C183.9 105.607 183.462 105.894 183.643 106.181Z" fill="#231F20" stroke="#231F20" stroke-width="0.156843" stroke-miterlimit="10"/>
<path d="M183.364 108.051C182.349 108.392 180.871 108.016 180.638 106.84C180.544 106.368 180.65 105.88 180.804 105.434C180.85 105.299 180.731 105.149 180.604 105.122C180.45 105.089 180.337 105.187 180.291 105.322C180.014 106.135 179.95 107.109 180.527 107.81C180.994 108.379 181.703 108.644 182.422 108.689C182.793 108.712 183.176 108.667 183.531 108.55C183.85 108.442 183.685 107.943 183.364 108.051Z" fill="#231F20" stroke="#231F20" stroke-width="0.156843" stroke-miterlimit="10"/>
<path d="M181.263 98.3708C181.271 98.4229 181.296 98.4729 181.352 98.5153C182.933 99.7056 184.561 100.981 185.766 102.57C186.318 103.292 186.937 104.263 186.712 105.22C186.616 105.624 186.453 105.867 186.149 106.142C185.899 106.37 186.201 106.803 186.449 106.578C188.463 104.754 186.295 102.188 184.878 100.798C183.892 99.8269 182.81 98.9583 181.705 98.1262C181.703 98.1262 181.703 98.1262 181.703 98.1243C181.49 97.9644 181.229 98.1744 181.263 98.3708Z" fill="#231F20" stroke="#231F20" stroke-width="0.156843" stroke-miterlimit="10"/>
<path d="M153.169 87.3885C153.334 87.9759 153.49 88.5749 153.649 89.1759C154.447 92.2133 155.274 95.3489 157.171 97.8605C158.268 99.3127 159.719 100.412 161.449 100.99C162.641 101.389 163.917 101.503 165.153 101.695C166.629 101.923 168.103 102.175 169.583 102.373C170.848 102.545 172.128 102.562 173.392 102.735C174.705 102.914 175.928 103.336 177.008 104.122C177.277 104.319 177.631 103.928 177.358 103.731C176.458 103.076 175.464 102.614 174.377 102.373C173.329 102.144 172.253 102.098 171.188 102.013C169.802 101.905 168.434 101.67 167.061 101.458C165.637 101.239 164.199 101.06 162.785 100.792C160.942 100.445 159.3 99.5303 158.057 98.1224C156.851 96.7568 156.067 95.0638 155.456 93.3631C154.999 92.0938 154.633 90.7957 154.282 89.4937C154.078 88.7348 153.878 87.9759 153.667 87.2209C153.574 86.8954 153.079 87.063 153.169 87.3885Z" fill="#231F20" stroke="#231F20" stroke-width="0.156843" stroke-miterlimit="10"/>
<path d="M196.074 97.9067C195.951 97.8354 195.782 97.899 195.721 98.0203C195.651 98.1532 195.711 98.3015 195.834 98.3747C196.153 98.5615 196.349 98.9391 196.384 99.305C196.424 99.7056 196.314 100.079 196.013 100.359C195.909 100.455 195.934 100.642 196.034 100.73C196.147 100.832 196.299 100.805 196.403 100.709C197.227 99.9502 197.02 98.4633 196.074 97.9067Z" fill="#231F20" stroke="#231F20" stroke-width="0.156843" stroke-miterlimit="10"/>
<path d="M194.737 98.7021C194.483 98.4787 194.133 98.8697 194.387 99.0931C194.959 99.6016 195.104 100.472 194.758 101.144C194.123 101.479 193.376 101.634 192.69 101.364C192.142 101.15 191.692 100.707 191.458 100.168C191.323 99.8616 190.825 100.023 190.96 100.335C191.256 101.013 191.796 101.582 192.492 101.849C193.374 102.186 194.294 102 195.102 101.555C195.177 101.514 195.213 101.454 195.223 101.393C195.688 100.518 195.476 99.3589 194.737 98.7021Z" fill="#231F20" stroke="#231F20" stroke-width="0.156843" stroke-miterlimit="10"/>
<path d="M190.197 90.6397C190.268 90.684 190.337 90.7302 190.408 90.7765C192.338 92.0168 194.321 93.3863 195.794 95.164C196.461 95.9691 197.199 97.0554 197.02 98.1648C196.949 98.6136 196.81 99.0026 196.507 99.3339C196.276 99.5824 196.587 99.9329 196.816 99.6845C198.915 97.404 196.124 94.5265 194.414 93.0588C193.255 92.0631 192 91.1848 190.716 90.3546C190.623 90.2949 190.531 90.2314 190.437 90.1717C190.153 89.9887 189.914 90.4587 190.197 90.6397Z" fill="#231F20" stroke="#231F20" stroke-width="0.156843" stroke-miterlimit="10"/>
<path d="M179.818 63.0509C179.47 63.3379 179.262 63.7693 179.036 64.1526C178.816 64.5224 178.597 64.8922 178.397 65.2736C177.871 66.2847 177.521 67.3633 177.325 68.4843C176.479 68.6769 175.645 68.9369 174.824 69.2104C172.795 69.8865 170.817 70.7339 168.945 71.7701C167.738 72.4366 166.581 73.1916 165.495 74.039C163.538 72.0051 160.659 70.9573 157.855 71.2674C157.741 71.2809 157.634 71.356 157.613 71.4735C157.115 74.1122 156.94 76.8029 157.094 79.4821C157.113 79.821 157.636 79.7922 157.616 79.4551C157.47 76.8819 157.63 74.3087 158.093 71.7759C160.776 71.5467 163.469 72.5926 165.293 74.5822C165.364 74.6612 165.529 74.6746 165.612 74.6072C168.855 72.034 172.758 70.2678 176.735 69.1777C177.035 69.0949 177.335 69.014 177.636 68.9485C177.719 68.9311 177.796 68.8368 177.809 68.7559C177.961 67.8063 178.217 66.8818 178.62 66.0093C178.939 65.3217 179.333 64.6746 179.72 64.0236C179.983 63.5786 180.314 63.1645 180.886 63.3148C181.394 63.4496 181.799 63.8695 182.163 64.2239C182.918 64.9654 183.61 65.7705 184.229 66.6295C184.944 67.6195 185.561 68.6788 186.072 69.7882C186.212 70.0906 186.712 69.9288 186.57 69.6207C186.059 68.5132 185.449 67.4558 184.748 66.4619C184.083 65.5239 183.337 64.6418 182.513 63.8329C182.118 63.4457 181.588 62.9893 181.031 62.8198C180.627 62.7004 180.21 62.7292 179.818 63.0509Z" fill="#231F20" stroke="#231F20" stroke-width="0.156843" stroke-miterlimit="10"/>
<path d="M162.16 74.22C161.328 73.6634 159.992 73.0548 159.235 74.0737C158.941 74.4685 158.835 74.9616 158.835 75.4469C158.835 76.0787 159.035 76.7046 158.969 77.3383C158.956 77.4808 159.021 77.6176 159.171 77.6523C159.296 77.6811 159.469 77.5926 159.483 77.4519C159.542 76.878 159.427 76.3252 159.377 75.7551C159.34 75.3391 159.356 74.898 159.563 74.5224C160.088 73.5748 161.286 74.2643 161.922 74.6881C162.039 74.767 162.214 74.69 162.273 74.5744C162.346 74.4357 162.279 74.299 162.16 74.22Z" fill="#231F20" stroke="#231F20" stroke-width="0.156843" stroke-miterlimit="10"/>
<path d="M180.898 65.1387C180.794 65.104 180.652 65.1772 180.608 65.2755C180.25 66.0863 179.895 66.8972 179.537 67.7061C179.401 68.0162 179.868 68.257 180.002 67.9488L180.981 65.73C181.738 66.0459 182.341 66.693 182.609 67.4711C182.718 67.7909 183.216 67.6252 183.106 67.3055C182.755 66.2751 181.926 65.4758 180.898 65.1387Z" fill="#231F20" stroke="#231F20" stroke-width="0.156843" stroke-miterlimit="10"/>
<path d="M185.824 75.3527C184.627 74.9309 182.864 75.3661 182.391 76.1982C182.163 76.6007 181.988 76.9706 181.832 77.298C181.494 78.0106 181.271 78.4825 180.854 78.5692C180.577 78.6308 180.094 78.2572 179.537 77.8296C178.909 77.3442 178.126 76.7413 177.292 76.5025C176.539 76.2849 175.664 76.6701 175.113 77.4578C174.642 78.132 174.374 79.1797 175.043 80.1023C176.124 81.595 178.818 82.9798 179.968 83.5711C180.079 83.627 180.175 83.6771 180.256 83.7194C180.619 83.9101 181.075 84.0392 181.559 84.0392C182.237 84.0392 182.974 83.7849 183.594 83.08C183.729 82.9298 183.879 82.766 184.042 82.5927C185.059 81.5006 186.595 79.85 186.985 77.4174C187.148 76.4062 186.735 75.6743 185.824 75.3527Z" fill="#231F20"/>
<path d="M172.514 83.9891C171.882 84.0218 171.407 84.7576 171.453 85.6301C171.499 86.5026 172.051 87.1805 172.683 87.1478C173.315 87.1131 173.79 86.3774 173.742 85.5049C173.696 84.6343 173.144 83.9544 172.514 83.9891Z" fill="#231F20"/>
<path d="M178.167 87.7141C177.926 88.6675 179.108 89.0584 180.004 89.1393C180.018 89.1548 180.035 89.1702 180.052 89.1817C180.265 89.3397 180.513 89.5958 180.715 89.904C180.75 89.9618 180.784 90.0215 180.821 90.0773C181.098 90.5704 181.226 91.1578 180.907 91.6567C180.531 92.248 179.677 92.7064 178.876 92.7488C178.455 92.7719 178.119 92.6659 177.955 92.4618C177.819 92.2904 177.571 92.2634 177.402 92.4002C177.231 92.535 177.204 92.7854 177.34 92.9549C177.669 93.367 178.23 93.5731 178.918 93.5365C179.969 93.4807 181.061 92.8836 181.57 92.0824C181.782 91.753 181.876 91.4063 181.886 91.0635C182.197 91.2118 182.547 91.285 182.935 91.2484C183.879 91.1578 184.909 90.4606 185.44 89.5496C185.787 88.9525 185.86 88.3574 185.645 87.8759L185.638 87.8585C185.543 87.6717 185.318 87.5908 185.124 87.6775C184.926 87.7661 184.838 87.9991 184.926 88.1975C185.034 88.4383 184.972 88.7849 184.761 89.1509C184.356 89.8462 183.558 90.3971 182.862 90.4625C182.272 90.5184 181.811 90.1332 181.497 89.6594C181.465 89.6016 181.432 89.5457 181.396 89.4918C181.23 89.1971 181.119 88.8851 181.069 88.6328C181.119 88.4922 181.167 88.3497 181.211 88.2071C181.324 87.8489 181.419 87.4733 181.376 87.1035C181.334 86.7337 181.128 86.3658 180.782 86.2233C180.736 86.2021 180.686 86.1886 180.638 86.1771C180.39 86.1231 180.119 86.1694 179.87 86.2503C179.431 86.3909 179.022 86.6297 178.682 86.9417C178.449 87.1555 178.243 87.4117 178.167 87.7141Z" fill="#231F20"/>
<path d="M181.595 79.1142C180.963 79.1488 180.488 79.8846 180.536 80.7552C180.583 81.6277 181.134 82.3076 181.765 82.2729C182.399 82.2402 182.872 81.5044 182.826 80.6319C182.779 79.7613 182.228 79.0814 181.595 79.1142Z" fill="white"/>
<path d="M146.78 84.3473C146.655 84.2606 146.463 84.3453 146.4 84.4705C146.321 84.6208 146.396 84.7652 146.523 84.8519C146.646 84.9366 146.769 85.0734 146.861 85.2236C146.918 85.3142 146.94 85.3565 146.974 85.4413C147.011 85.5356 147.04 85.6319 147.061 85.7321C147.063 85.7379 147.063 85.7437 147.065 85.7475L147.074 85.8226C147.082 85.8727 147.086 85.9247 147.086 85.9748C147.09 86.0865 147.088 86.1308 147.076 86.2175C147.047 86.4062 147.003 86.5333 146.918 86.6855C146.052 86.4717 145.146 86.152 144.497 85.5125C144.385 85.4027 144.324 85.3315 144.23 85.1986C144.193 85.1466 144.158 85.0926 144.126 85.0387C144.108 85.0079 144.091 84.9771 144.076 84.9463L144.051 84.9V84.8981C144.001 84.7864 143.959 84.6728 143.928 84.5534L143.905 84.4532C143.895 84.4012 143.887 84.3492 143.884 84.2953C143.874 84.1913 143.874 84.0872 143.878 83.9813C143.878 83.9775 143.878 83.9775 143.878 83.9755C143.878 83.9717 143.878 83.9698 143.88 83.9659L143.887 83.9043C143.893 83.86 143.901 83.8176 143.909 83.7752C143.922 83.7117 143.91 83.6577 143.889 83.6115C144.087 83.5595 144.187 83.2244 143.955 83.0703C138.371 79.3472 132.713 75.3545 128.992 69.6361C125.048 63.5786 123.529 56.0054 124.89 48.8982C125.672 44.8092 127.398 40.934 129.922 37.6269C130.141 37.338 129.722 36.9567 129.501 37.2475C124.927 43.2453 123.028 50.9591 124.158 58.4129C124.711 62.0647 125.945 65.6183 127.814 68.8059C129.516 71.7143 131.748 74.274 134.245 76.5256C137.118 79.1142 140.312 81.3157 143.522 83.4594C143.445 83.4863 143.378 83.546 143.355 83.6539C143.265 84.0988 143.307 84.5784 143.48 84.9983C143.764 85.6955 144.341 86.2078 144.987 86.568C145.554 86.8839 146.18 87.088 146.807 87.2421C146.93 87.2729 147.024 87.2229 147.08 87.1458C147.201 87.1709 147.322 87.1131 147.389 87.0033C147.653 86.568 147.703 86.0441 147.599 85.553C147.491 85.058 147.195 84.6323 146.78 84.3473Z" fill="#231F20" stroke="#231F20" stroke-width="0.156843" stroke-miterlimit="10"/>
<path d="M142.087 60.6491C141.789 59.6148 141.352 58.6267 140.795 57.706C140.62 57.4191 140.182 57.706 140.357 57.9969C142.769 61.9723 142.611 67.3286 139.942 71.1422C139.749 71.4157 140.138 71.7701 140.332 71.4928C142.515 68.3725 143.136 64.3047 142.087 60.6491Z" fill="white" stroke="white" stroke-width="0.155736" stroke-miterlimit="10"/>
<path d="M142.035 73.3398C141.792 73.1106 141.385 73.4419 141.631 73.6749C144.283 76.1904 146.634 79.0082 148.637 82.0668C148.821 82.348 149.225 82.0129 149.042 81.7316C147.038 78.6731 144.685 75.8553 142.035 73.3398Z" fill="white" stroke="white" stroke-width="0.155736" stroke-miterlimit="10"/>
<path d="M148.335 83.2725C148.212 83.1993 148.043 83.2648 147.981 83.3861C147.914 83.5171 147.972 83.6673 148.095 83.7386C148.414 83.9273 148.61 84.3029 148.644 84.6688C148.685 85.0695 148.575 85.4431 148.273 85.7224C148.17 85.8187 148.195 86.0055 148.295 86.0941C148.408 86.1962 148.56 86.1693 148.664 86.0749C149.488 85.3141 149.281 83.8291 148.335 83.2725Z" fill="#231F20" stroke="#231F20" stroke-width="0.156843" stroke-miterlimit="10"/>
</svg>
