<svg width="200" height="165" viewBox="0 0 200 165" fill="none" xmlns="http://www.w3.org/2000/svg">
<path d="M37.4848 148.088C37.2025 148.955 36.52 149.386 35.7873 149.848C33.3377 151.396 33.9911 154.616 33.9119 157.063C33.8983 157.436 33.8597 157.794 33.7939 158.134C33.3396 160.522 31.6228 162.077 29.2254 162.972C26.9053 163.838 24.448 164.325 21.9771 164.441C19.3825 164.561 16.7627 164.261 14.259 163.567C9.06013 162.125 4.41807 158.799 2.21788 153.751C0.5455 149.914 0.145289 145.351 1.46773 141.353C1.98974 139.779 2.80756 138.315 3.82066 137.006C7.14221 132.71 12.4494 129.957 17.7778 129.174C20.4768 128.78 23.1758 128.873 25.8245 129.536C26.6675 129.748 27.4872 130.033 28.3611 130.127C29.7725 130.28 31.3579 129.762 32.545 130.775C33.1617 131.307 33.5561 132.047 33.8055 132.813C34.2077 134.044 34.3914 135.177 34.5016 136.488C34.5538 137.101 34.5808 137.681 34.5673 138.408C34.5518 139.135 34.5267 140.243 33.8635 140.805C33.2004 141.366 32.5894 141.77 31.6073 141.61C29.7899 141.314 29.3066 140.382 28.3283 138.53C27.6438 137.236 26.7738 135.997 25.5577 135.152C23.4445 133.685 20.4671 133.484 18.2244 134.779C15.8154 136.173 14.5645 139.1 13.94 141.687C12.6272 147.137 13.7525 154.797 19.5526 157.26C20.7649 157.777 22.4372 158.014 23.3846 156.891C24.0767 156.069 24.1734 154.875 24.2353 153.875C24.2353 153.867 24.359 151.87 23.9356 150.973C23.5586 150.171 22.6518 149.923 21.8127 149.9C21.2946 149.887 20.8055 150.024 20.2931 149.854C19.4811 149.579 19.164 149.1 19.0383 148.487C18.9088 147.874 19.2104 147.522 19.5352 147.13C19.86 146.739 20.2989 146.491 20.7533 146.283C22.7543 145.374 24.9042 145.36 27.0445 145.343C29.8189 145.32 32.427 145.343 35.1976 145.504C35.7409 145.534 36.1701 145.471 36.7675 145.879C37.3668 146.283 37.7613 147.226 37.4848 148.088Z" fill="#BE6420"/>
<path d="M53.3078 152.187C53.3097 152.009 53.1512 151.853 52.9733 151.859C50.108 151.98 48.0644 153.684 48.0644 156.704C48.0644 158.419 48.9441 159.497 50.2202 159.497C52.5093 159.497 53.2672 156.247 53.3078 152.187ZM66.8879 158.881C66.8879 161.607 63.1564 164.573 59.6667 164.573C55.8908 164.573 55.7922 162.133 54.5993 162.133C53.6307 162.133 52.7297 162.999 51.8597 163.374C51.0341 163.728 50.1641 163.981 49.2844 164.143C47.469 164.482 45.5646 164.464 43.7646 164.045C40.1356 163.2 37.2781 160.553 37.2781 156.653C37.2781 151.555 41.5915 148.224 53.0622 148.224C52.9636 144.4 52.1825 143.518 50.1718 143.518C47.3762 143.518 47.3762 147.193 43.4069 147.193C40.7098 147.193 39.2888 145.968 39.2888 144.301C39.2888 141.459 42.9642 139.597 51.2971 139.597C57.714 139.597 63.4581 141.107 64.0342 147.868C64.0806 148.131 64.0922 148.906 64.0922 149.009V153.556C64.0922 153.958 64.1077 154.366 64.1212 154.772C64.6181 159.946 66.8898 156.58 66.8879 158.881Z" fill="#BE6420"/>
<path d="M87.256 158.54C87.256 161.672 82.1364 164.426 77.6046 164.426C75.3154 164.426 69.5694 163.382 69.5694 155.836V146.265C69.5694 144.833 67.897 145.115 66.998 144.688C66.3155 144.363 65.6678 143.793 65.4822 143.037C65.0588 141.308 66.7795 140.504 68.0343 139.872C69.6448 139.058 71.1103 137.956 72.3341 136.631C73.4168 135.46 74.5092 134.267 76.1255 133.892C77.069 133.673 78.0628 133.743 79.0256 133.741C79.7158 133.741 80.2688 134.352 80.2688 135.04V139.377C80.2688 139.885 80.6806 140.295 81.1891 140.295H84.9978C85.98 140.295 86.7765 141.092 86.7765 142.074V143.228C86.7765 144.208 85.9839 145.005 85.0017 145.005H81.1891C80.6806 145.005 80.2688 145.415 80.2688 145.925V153.817C80.3538 156.721 81.5525 157.45 82.7203 157.45C84.1123 157.45 84.9186 156.358 85.7286 156.358C86.6257 156.358 87.2541 157.686 87.256 158.54Z" fill="#BE6420"/>
<path d="M104.794 161.448C104.794 164.65 99.0247 164.41 96.9908 164.41C94.864 164.41 88.2422 164.65 88.2422 161.257C88.2422 159.785 90.4424 159.718 90.8426 158.438C91.0359 157.823 91.1345 156.785 91.1906 155.6V147.24C91.1906 144.496 88.3485 145.575 88.3485 143.321C88.3485 142.047 89.8198 141.215 91.7281 141.018C94.1274 140.773 98.5375 139.599 99.5158 139.599C100.985 139.599 101.963 140.575 101.963 144.104V157.054C101.985 157.622 102.031 158.171 102.143 158.535C102.58 159.975 104.79 159.714 104.794 161.448Z" fill="#BE6420"/>
<path d="M136.633 161.98C136.633 164.634 129.286 164.412 129.286 164.412C129.286 164.412 122.121 164.605 122.121 161.98C122.121 160.021 123.987 160.804 123.987 158.206V148.599C123.987 146.345 123.248 144.579 121.338 144.579C119.426 144.579 118.691 146.345 118.691 148.599V158.206C118.691 160.804 120.555 160.021 120.555 161.98C120.555 164.721 113.133 164.412 113.133 164.412C113.133 164.412 106.047 164.547 106.047 161.98C106.047 160.021 107.909 160.804 107.909 158.206V147.717C107.909 144.382 105.509 145.755 105.509 143.696C105.509 142.422 106.636 141.786 109.185 140.952C110.358 140.56 113.987 139.582 115.263 139.582C117.077 139.582 117.371 141.15 117.614 142.816C119.722 140.463 122.368 139.582 125.311 139.582C131.78 139.582 134.773 143.404 134.773 149.533V158.208C134.773 160.806 136.635 160.023 136.633 161.98Z" fill="#BE6420"/>
<path d="M169.854 161.433C169.854 164.634 164.085 164.397 162.053 164.397C159.924 164.397 154.209 164.644 154.209 161.251C154.209 159.776 155.506 159.702 155.907 158.422C156.046 157.982 156.135 157.315 156.197 156.547V148.597C156.197 146.345 155.462 144.581 153.554 144.581C151.644 144.581 150.909 146.345 150.909 148.597V156.999C150.928 157.579 150.975 158.146 151.091 158.519C151.468 159.774 153.065 159.981 153.065 161.452C153.065 164.654 147.968 164.397 145.934 164.397C143.808 164.397 137.19 164.634 137.19 161.241C137.19 159.77 139.39 159.702 139.79 158.422C139.979 157.817 140.08 156.798 140.134 155.64V137.339C140.134 134.595 137.296 135.676 137.296 133.422C137.296 132.148 138.029 131.463 139.941 131.266C142.34 131.021 147.481 129.698 148.461 129.698C149.929 129.698 150.909 130.68 150.909 134.205V141.544C152.918 140.368 155.319 139.585 157.521 139.585C163.988 139.585 166.973 143.404 166.973 149.529V153.597L167.02 155.317C167.02 156.178 166.973 157.755 167.209 158.519C167.478 159.41 168.421 159.619 169.094 160.103C169.556 160.435 169.856 160.855 169.854 161.433Z" fill="#BE6420"/>
<path d="M188.011 151.248C186.965 146.476 185.321 144.317 183.084 144.804C180.847 145.293 180.26 147.945 181.302 152.717C182.346 157.489 183.991 159.652 186.228 159.163C188.463 158.672 189.055 156.021 188.011 151.248ZM199.754 151.982C199.706 160.021 191.862 164.385 184.658 164.385C177.45 164.385 169.609 160.021 169.558 151.982C169.609 143.945 177.45 139.582 184.658 139.582C191.86 139.582 199.704 143.945 199.754 151.982Z" fill="#BE6420"/>
<path d="M35.7291 110.933C35.7291 115.934 32.947 120.145 28.6954 122.634C26.8413 123.722 24.7997 124.48 22.7058 124.959C20.9406 125.363 19.0594 125.57 17.1976 125.568C16.1342 125.566 15.0767 125.495 14.05 125.356C11.0591 124.95 8.16482 124.066 5.2454 123.322C4.57452 123.154 3.8553 122.953 3.41062 122.423C3.11868 122.073 2.98528 121.62 2.85767 121.183C2.54253 120.107 2.22546 119.032 1.91225 117.953C1.3361 115.988 0.0774632 112.665 3.23662 112.665C8.01401 112.665 7.01639 120.435 16.4146 120.435C20.8227 120.435 23.1331 117.916 23.1331 115.606C23.1331 108.464 1.2955 113.504 1.2955 98.9089C1.2955 91.1387 8.22475 85.47 18.3054 85.47C21.1707 85.47 24.0321 86.137 26.8858 85.76C28.0806 85.6014 29.3876 85.3308 30.4142 85.9591C31.6439 86.7131 32.2432 88.4822 32.655 89.7872C33.3742 92.057 34.6329 98.1723 30.6965 98.1723C26.7582 98.1723 28.5968 89.7737 20.0397 89.7737C15.8926 89.7737 13.8992 91.6626 13.8992 93.9208C13.8992 101.691 35.7388 97.1747 35.7291 110.933Z" fill="#231F20"/>
<path d="M54.9492 111.698C54.9511 111.499 54.7713 111.321 54.5721 111.329C51.3395 111.466 49.033 113.388 49.033 116.797C49.033 118.73 50.0268 119.948 51.4671 119.948C54.0482 119.948 54.9047 116.28 54.9492 111.698ZM70.2732 119.252C70.2732 122.328 66.0623 125.675 62.1259 125.675C57.8647 125.675 57.7545 122.922 56.4069 122.922C55.3146 122.922 54.2976 123.898 53.3154 124.321C52.3835 124.722 51.4033 125.006 50.4096 125.19C48.3621 125.572 46.2141 125.551 44.1821 125.077C40.0872 124.124 36.8643 121.139 36.8643 116.739C36.8643 110.987 41.7306 107.226 54.6727 107.226C54.5625 102.913 53.6789 101.917 51.4111 101.917C48.2577 101.917 48.2577 106.064 43.778 106.064C40.7368 106.064 39.1321 104.682 39.1321 102.801C39.1321 99.5934 43.2792 97.4938 52.6813 97.4938C59.9218 97.4938 66.4025 99.1971 67.0541 106.826C67.1063 107.122 67.1179 107.998 67.1179 108.114V113.243C67.1179 113.697 67.1353 114.16 67.1508 114.616C67.7134 120.455 70.2751 116.657 70.2732 119.252Z" fill="#231F20"/>
<path d="M89.4079 122.158C89.4079 123.401 88.6326 124.176 87.5286 124.671C87.4919 124.687 87.461 124.706 87.4223 124.718C85.311 125.613 82.0823 125.505 80.5994 125.505C78.1962 125.505 70.7236 125.773 70.7236 121.943C70.7236 120.279 73.2061 120.205 73.6604 118.761C73.8731 118.084 73.9853 116.951 74.0471 115.662V94.9533C74.0471 91.8541 70.8416 93.0721 70.8416 90.5297C70.8416 89.0893 72.4985 88.1516 74.6542 87.9293C77.3629 87.6528 82.3413 86.3246 83.4472 86.3246C85.1061 86.3246 86.212 87.4324 86.212 91.4133V117.116C86.2313 117.785 86.2855 118.438 86.4189 118.867C86.908 120.493 89.4059 120.199 89.4079 122.158Z" fill="#231F20"/>
<path d="M121.86 100.125C121.86 100.931 120.735 101.79 119.381 103.079C119.002 103.439 118.84 104.226 118.66 104.684C118.214 105.834 112.709 120.484 111.46 122.33C110.754 123.378 109.886 124.31 108.583 124.648C107.576 124.911 106.493 124.888 105.457 124.888C103.852 124.888 101.861 124.658 100.751 123.409C99.4365 121.924 98.5432 119.666 97.6519 117.906C95.7727 114.206 94.1467 110.384 92.3255 106.654C91.7474 105.471 91.3433 104.359 90.3186 103.462C89.4234 102.679 88.4297 101.506 88.4297 100.288C88.4297 98.6751 89.785 98.2478 92.3777 98.2478H102.526C105.121 98.2478 106.022 99.2145 106.022 100.45C106.022 101.216 105.577 101.91 105.053 102.465C104.454 103.095 103.833 103.684 104.175 104.597C104.388 105.164 104.62 105.728 104.838 106.295C105.387 107.721 105.936 109.148 106.488 110.577C106.967 111.82 107.448 113.063 107.928 114.308L111.597 104.35C111.607 104.321 111.615 104.29 111.625 104.261C111.783 103.816 112.002 103.42 111.706 102.985C111.416 102.559 110.799 102.364 110.368 102.103C109.691 101.687 109.03 101.177 109.03 100.34C109.03 98.998 110.047 98.2478 111.51 98.2478H119.219C120.57 98.2478 121.866 98.9999 121.86 100.125Z" fill="#231F20"/>
<path d="M133 105.933C133 107.868 134.96 107.437 136.467 107.437C138.025 107.437 139.875 107.758 139.875 105.825C139.875 103.891 138.605 102.387 136.467 102.387C134.556 102.387 132.998 104.212 133 105.933ZM150.621 117.572C150.901 118.682 150.497 120.066 149.614 121.013C149.556 121.075 149.474 121.133 149.414 121.193C149.411 121.197 149.409 121.203 149.403 121.209C149.382 121.23 149.351 121.247 149.329 121.27C149.032 121.557 148.705 121.839 148.336 122.106C148.096 122.282 147.839 122.44 147.58 122.601C147.396 122.713 147.212 122.827 147.013 122.937C146.663 123.127 146.309 123.302 145.946 123.467C145.762 123.548 145.586 123.633 145.395 123.716C145.004 123.879 144.625 124.022 144.243 124.159C144.055 124.23 143.895 124.304 143.697 124.372C141.507 125.126 139.226 125.507 136.919 125.507C136.896 125.507 136.871 125.505 136.846 125.505C136.836 125.505 136.822 125.507 136.813 125.507C128.718 125.507 120.568 120.882 120.568 111.963C120.568 111.94 120.574 111.919 120.574 111.894C120.574 111.859 120.568 111.824 120.568 111.789C120.568 103.516 128.139 97.4976 136.809 97.4976C146.634 97.4976 150.965 104.535 150.965 108.564C150.965 112.11 149.235 112.595 147.384 112.595H134.844C134.39 112.595 133.93 112.566 133.478 112.592C133.472 112.592 133.466 112.595 133.462 112.595H133.694C133.491 112.609 133.362 112.648 133.323 112.711C133.271 112.798 133.28 113.019 133.282 113.1C133.317 114.042 133.481 114.892 133.766 115.629C133.969 116.151 134.235 116.619 134.564 117.027C135.637 118.351 137.462 119.113 139.566 119.113C140.358 119.113 141.159 118.995 141.88 118.774C142.619 118.548 143.373 118.148 144.248 117.516C144.48 117.348 144.703 117.164 144.925 116.978C145.445 116.547 145.985 116.101 146.659 115.818C147.044 115.658 147.45 115.577 147.872 115.577C148.198 115.577 148.517 115.627 148.825 115.724C149.761 116.019 150.399 116.677 150.621 117.572Z" fill="#231F20"/>
<path d="M172.381 129.603C172.381 130.342 171.728 130.709 170.252 131.193C169.572 131.421 167.468 131.987 166.73 131.987C165.68 131.987 165.508 131.081 165.369 130.114C164.147 131.477 162.614 131.987 160.91 131.987C157.162 131.987 155.427 129.774 155.427 126.224V125.035H155.425V122.027C155.425 120.435 153.778 121.062 153.778 119.755C153.778 119.018 154.631 118.535 155.737 118.421C157.129 118.28 159.685 117.597 160.253 117.597C161.104 117.597 161.672 118.168 161.672 120.211V123.073H161.676V126.763C161.676 128.068 162.103 129.091 163.209 129.091C164.04 129.091 164.495 128.443 164.655 127.693C164.7 127.492 164.725 127.285 164.75 127.077V122.027C164.75 120.435 163.103 121.062 163.103 119.755C163.103 119.018 163.955 118.535 165.061 118.421C166.453 118.28 169.009 117.597 169.578 117.597C170.428 117.597 170.997 118.168 170.997 120.211V124.366C171.043 124.668 171.006 125.004 170.997 125.304V127.328C171.026 129.18 172.383 128.424 172.381 129.603Z" fill="#BE6420"/>
<path d="M199.868 130.644C199.868 132.225 195.676 132.061 195.676 132.061C195.676 132.061 191.415 132.169 191.415 130.644C191.415 129.501 192.5 129.957 192.5 128.757V123.074C192.5 121.131 192.015 120.503 191.073 120.503C190.13 120.503 189.644 121.131 189.644 123.074V128.757C189.644 129.385 190.112 129.586 190.406 130.079C190.549 130.323 190.596 130.624 190.526 130.899C190.302 131.807 188.968 131.908 188.196 131.991C187.657 132.049 187.117 132.065 186.576 132.061C185.94 132.078 185.296 132.047 184.664 131.97C183.794 131.864 182.408 131.674 182.529 130.483C182.57 130.091 182.742 129.816 183.026 129.573C183.274 129.362 183.361 129.076 183.361 128.757V123.074C183.361 121.131 182.876 120.503 181.934 120.503C180.99 120.503 180.505 121.131 180.505 123.074V128.757C180.505 129.114 180.619 129.406 180.905 129.625C181.284 129.911 181.59 130.125 181.59 130.644C181.59 132.258 177.245 132.061 177.245 132.061C177.245 132.061 173.137 132.223 173.137 130.644C173.137 130.172 173.379 129.932 173.736 129.683C174.067 129.453 174.222 129.168 174.222 128.757V122.388C174.222 120.331 172.882 121.388 172.882 120.076C172.882 119.275 174.28 118.875 174.879 118.647C175.737 118.307 177.737 117.591 178.649 117.591C179.734 117.591 179.906 118.649 180.049 119.476C181.163 118.22 182.848 117.591 184.532 117.591C186.16 117.591 187.875 118.334 188.674 119.819C189.702 118.22 191.645 117.591 193.443 117.591C196.9 117.591 198.783 119.304 198.783 122.732V128.757C198.783 129.957 199.868 129.501 199.868 130.644Z" fill="#BE6420"/>
<path d="M100.774 130.787C99.7031 130.044 97.8355 129.994 97.1394 130.688C96.803 131.023 96.5285 131.342 96.2868 131.622C95.759 132.231 95.4149 132.635 94.9799 132.606C94.6918 132.589 94.3186 132.094 93.8856 131.521C93.3964 130.872 92.7855 130.064 92.0237 129.598C91.3354 129.176 90.361 129.317 89.5992 129.946C88.9477 130.485 88.3986 131.45 88.8085 132.548C89.4736 134.317 91.7608 136.417 92.7371 137.314C92.8319 137.401 92.9131 137.476 92.9827 137.538C93.437 137.963 94.1214 138.311 94.9006 138.311C95.3955 138.311 95.9311 138.17 96.4666 137.82C96.6426 137.706 96.8359 137.588 97.0447 137.461C98.3459 136.658 100.316 135.448 101.364 133.151C101.801 132.194 101.592 131.355 100.774 130.787Z" fill="#BE6420"/>
<path d="M169.787 7.30515C167.581 2.60509 162.556 1.07578 159.756 0.584699C155.998 -0.0784516 152.055 0.277291 148.357 1.61326C144.61 2.96663 141.379 5.22096 139.021 8.13651C136.606 11.1217 135.162 14.8009 134.844 18.774C134.529 22.7162 135.386 26.6699 137.257 29.9103C137.702 30.6779 138.852 32.213 138.91 32.2632C139.028 32.3889 139.191 32.4488 139.353 32.4392C139.458 32.4334 139.564 32.3986 139.659 32.3348C139.877 32.182 141.946 31.9075 142.245 31.7934C142.539 31.6871 142.679 31.3893 142.574 31.0993C142.526 30.9659 142.479 30.8287 142.412 30.6315C141.287 27.3602 140.27 22.4204 141.812 17.4554C142.994 13.6544 145.546 10.5262 148.813 8.87119C152.061 7.22781 156.017 7.32448 159.141 9.13413C159.913 9.58075 160.609 10.1298 161.21 10.764C161.815 11.402 162.289 12.1676 162.705 12.8424L162.834 13.0492C163.613 14.3195 164.586 15.8971 166.21 16.2664C168.232 16.7246 169.767 15.0464 170.332 13.2832C170.914 11.4639 170.715 9.28687 169.787 7.30515Z" fill="#231F20"/>
<path d="M194.041 81.9763C192.558 82.3282 191.094 82.771 189.662 83.3027C189.343 83.4225 189.176 82.9198 189.493 82.8019C190.961 82.2567 192.459 81.8062 193.979 81.4485C193.83 80.42 193.544 79.3585 193.148 78.2855C191.823 79.6601 190.427 80.9652 188.962 82.189C188.701 82.4075 188.413 81.9647 188.672 81.7501C190.17 80.4992 191.593 79.1594 192.939 77.7461C192.376 76.3463 191.638 74.935 190.793 73.5584C190.021 76.1723 189.014 78.7089 187.778 81.1373C187.626 81.4408 187.156 81.1991 187.311 80.8956C188.544 78.4711 189.549 75.9403 190.313 73.3283C190.346 73.2123 190.435 73.1524 190.53 73.1388C189.051 70.7994 187.287 68.5799 185.582 66.72C186.288 67.7157 186.903 68.7771 187.415 69.8888C187.558 70.1982 187.055 70.3606 186.916 70.057C186.402 68.9434 185.779 67.88 185.06 66.8863C184.438 66.024 183.744 65.2158 182.982 64.4734C182.618 64.1157 182.208 63.6942 181.698 63.5608C181.122 63.4081 180.789 63.8238 180.524 64.2704C180.138 64.9239 179.739 65.5735 179.42 66.2637C179.013 67.1395 178.757 68.0676 178.605 69.0207C178.591 69.1019 178.514 69.1967 178.431 69.2141C178.125 69.2817 177.823 69.361 177.522 69.4441C173.522 70.5384 169.597 72.3113 166.335 74.8944C166.25 74.962 166.086 74.9504 166.012 74.8712C164.178 72.872 161.469 71.8222 158.77 72.0523C158.304 74.5947 158.144 77.1796 158.29 79.7607C158.312 80.099 157.784 80.1261 157.765 79.7897C157.612 77.0984 157.786 74.3975 158.287 71.7487C158.31 71.6308 158.418 71.5554 158.53 71.5419C161.351 71.2306 164.247 72.2843 166.215 74.324C167.31 73.4733 168.474 72.7154 169.686 72.0465C171.569 71.0063 173.56 70.1556 175.6 69.477C176.426 69.2025 177.267 68.9415 178.117 68.7481C178.313 67.6229 178.665 66.5402 179.196 65.5271C179.397 65.1443 179.616 64.7711 179.838 64.3999C180.064 64.0152 180.273 63.5821 180.625 63.294C181.017 62.9712 181.437 62.9422 181.843 63.064C179.034 60.4906 176.667 58.1551 174.815 54.3773C172.646 49.9537 172.735 44.8109 170.55 40.4008C168.512 36.2885 164.957 32.9534 160.837 30.9698C155.097 28.2031 142.655 25.8289 134.74 33.7074C127.47 40.774 125.904 52.5599 128.389 62.0199C130.637 70.5868 139.026 79.4455 147.562 85.4178C147.554 85.3888 147.549 85.3598 147.537 85.3308L147.516 85.2786C147.512 85.2689 147.504 85.2534 147.5 85.2476L147.458 85.18C147.456 85.1761 147.438 85.1548 147.431 85.1432C147.419 85.1316 147.4 85.1104 147.396 85.1065L147.334 85.0524C147.222 84.9615 147.16 84.9074 147.253 84.803C147.349 84.6947 147.419 85.0176 147.531 85.1065C147.709 85.2534 147.713 85.0079 147.777 85.2283C147.829 85.412 148.125 85.6053 148.102 85.7948C150.195 87.2274 152.287 88.4841 154.294 89.5146C154.136 88.9114 153.977 88.3121 153.813 87.7204C153.722 87.3937 154.221 87.2274 154.312 87.5542C154.524 88.3121 154.727 89.0738 154.932 89.8336C155.044 89.8897 155.158 89.9477 155.269 90.0018C156.665 90.6785 157.652 91.8115 158.522 93.0489C162.308 91.9604 166.09 90.8506 169.871 89.7505C170.198 89.6558 170.364 90.1565 170.04 90.2512C166.304 91.3378 162.573 92.4321 158.836 93.5071C159.342 94.2611 159.82 95.0383 160.33 95.7633C160.763 96.3781 161.268 96.9311 161.827 97.4318C164.57 95.5603 167.314 93.6888 170.057 91.8173C170.339 91.6259 170.627 92.0667 170.347 92.2581C167.644 94.1006 164.943 95.9451 162.242 97.7876C162.919 98.3328 163.665 98.8065 164.47 99.2067C169.715 101.813 177.286 101.374 182.199 98.7601C182.166 98.5648 182.427 98.3521 182.641 98.5126C182.641 98.5145 182.643 98.5145 182.643 98.5165C183.113 98.2439 183.558 97.9519 183.968 97.6387C187.044 95.2896 189.613 93.4723 191.398 91.1367C191.328 91.0923 191.257 91.0459 191.185 90.9995C190.903 90.8177 191.141 90.3479 191.427 90.5296C191.522 90.5915 191.614 90.6534 191.709 90.7133C193.018 88.8553 193.851 86.6474 194.072 83.5965C194.11 83.0706 194.095 82.5274 194.041 81.9763Z" fill="white"/>
<path d="M136.097 48.1016C120.808 54.1608 136.041 72.0156 138.282 74.2313C140.523 76.4489 143.746 84.4782 151.56 79.3084C159.373 74.1385 146.557 70.1461 149.702 61.1403C152.85 52.1327 148.788 44.1613 136.097 48.1016Z" fill="#BE6420"/>
<path d="M169.86 89.7544C166.077 90.8545 162.297 91.9623 158.509 93.0527C158.409 93.0817 158.306 93.1127 158.204 93.1397C157.879 93.2345 158.045 93.7352 158.372 93.6405C158.523 93.5979 158.674 93.5535 158.824 93.5109C162.562 92.436 166.293 91.3397 170.028 90.2532C170.353 90.1584 170.187 89.6577 169.86 89.7544Z" fill="#231F20" stroke="#231F20" stroke-width="0.156843" stroke-miterlimit="10"/>
<path d="M170.044 91.8211C167.3 93.6926 164.557 95.5622 161.813 97.4357C161.808 97.4395 161.802 97.4434 161.794 97.4473C161.516 97.6387 161.804 98.0814 162.086 97.8881C162.132 97.8552 162.181 97.8224 162.229 97.7914C164.93 95.947 167.633 94.1045 170.336 92.26C170.614 92.0705 170.326 91.6278 170.044 91.8211Z" fill="#231F20" stroke="#231F20" stroke-width="0.156843" stroke-miterlimit="10"/>
<path d="M170.795 93.4606C169.345 95.4597 167.897 97.4608 166.448 99.4599C166.25 99.7325 166.641 100.088 166.84 99.8137C168.29 97.8126 169.738 95.8116 171.188 93.8125C171.385 93.5399 170.994 93.1841 170.795 93.4606Z" fill="#231F20" stroke="#231F20" stroke-width="0.156843" stroke-miterlimit="10"/>
<path d="M190.324 73.3302C189.563 75.9422 188.556 78.4749 187.322 80.8994C187.168 81.203 187.638 81.4427 187.792 81.1392C189.027 78.7128 190.035 76.1742 190.804 73.5603C190.817 73.5216 190.829 73.483 190.841 73.4423C190.902 73.2335 190.711 73.1156 190.541 73.1407C190.448 73.1562 190.359 73.2142 190.324 73.3302Z" fill="#231F20" stroke="#231F20" stroke-width="0.156843" stroke-miterlimit="10"/>
<path d="M188.974 82.1929C190.441 80.969 191.835 79.6621 193.159 78.2874C193.71 77.7151 194.252 77.1332 194.776 76.5358C195 76.2806 194.608 75.9268 194.383 76.1839C193.917 76.7156 193.44 77.2357 192.951 77.748C191.607 79.1613 190.182 80.5012 188.684 81.7521C188.426 81.9667 188.713 82.4113 188.974 82.1929Z" fill="#231F20" stroke="#231F20" stroke-width="0.156843" stroke-miterlimit="10"/>
<path d="M198.787 80.6442C197.173 80.8105 195.57 81.0812 193.991 81.4524C192.471 81.81 190.973 82.2605 189.507 82.8057C189.19 82.9237 189.354 83.4244 189.673 83.3065C191.108 82.7729 192.57 82.3301 194.054 81.9782C195.621 81.607 197.212 81.3364 198.816 81.172C199.153 81.1372 199.128 80.6094 198.787 80.6442Z" fill="#231F20" stroke="#231F20" stroke-width="0.156843" stroke-miterlimit="10"/>
<path d="M186.568 105.318C186.445 105.247 186.277 105.31 186.213 105.432C186.145 105.566 186.205 105.714 186.327 105.788C186.648 105.975 186.845 106.354 186.882 106.722C186.92 107.124 186.81 107.499 186.508 107.779C186.402 107.876 186.429 108.063 186.528 108.152C186.642 108.255 186.795 108.228 186.901 108.131C187.728 107.369 187.519 105.877 186.568 105.318Z" fill="#231F20" stroke="#231F20" stroke-width="0.156843" stroke-miterlimit="10"/>
<path d="M184.486 106.584C184.654 106.853 184.815 107.124 184.929 107.414C184.969 107.516 185.004 107.621 185.029 107.727L185.039 107.77C185.041 107.779 185.043 107.797 185.045 107.804C185.051 107.849 185.056 107.893 185.058 107.938C185.06 107.975 185.051 108.017 185.056 108.05C185.056 108.054 185.056 108.052 185.056 108.056L185.051 108.102C185.045 108.137 185.037 108.172 185.027 108.205L185.016 108.241C184.966 108.355 184.909 108.462 184.848 108.568C184.774 108.692 184.84 108.862 184.962 108.924C185.095 108.992 185.244 108.934 185.315 108.81C185.482 108.529 185.6 108.243 185.584 107.911C185.557 107.327 185.228 106.774 184.925 106.294C184.745 106.008 184.302 106.296 184.486 106.584Z" fill="#231F20" stroke="#231F20" stroke-width="0.156843" stroke-miterlimit="10"/>
<path d="M184.203 108.462C183.183 108.804 181.696 108.427 181.462 107.246C181.368 106.772 181.476 106.283 181.629 105.834C181.675 105.701 181.555 105.548 181.428 105.521C181.275 105.488 181.159 105.587 181.112 105.722C180.834 106.538 180.77 107.516 181.352 108.22C181.82 108.79 182.533 109.057 183.256 109.102C183.629 109.127 184.016 109.081 184.372 108.963C184.692 108.854 184.526 108.354 184.203 108.462Z" fill="#231F20" stroke="#231F20" stroke-width="0.156843" stroke-miterlimit="10"/>
<path d="M182.091 98.7446C182.1 98.7968 182.124 98.8471 182.18 98.8896C183.771 100.084 185.408 101.364 186.623 102.959C187.176 103.684 187.8 104.659 187.572 105.62C187.475 106.026 187.311 106.269 187.007 106.546C186.754 106.774 187.06 107.209 187.309 106.983C189.333 105.152 187.152 102.577 185.727 101.181C184.736 100.206 183.647 99.3343 182.535 98.4991C182.533 98.4991 182.533 98.4991 182.533 98.4972C182.319 98.3367 182.058 98.5474 182.091 98.7446Z" fill="#231F20" stroke="#231F20" stroke-width="0.156843" stroke-miterlimit="10"/>
<path d="M153.83 87.7204C153.997 88.3101 154.153 88.9114 154.314 89.5146C155.116 92.5636 155.947 95.7111 157.856 98.2323C158.96 99.6901 160.419 100.794 162.159 101.374C163.358 101.774 164.642 101.89 165.885 102.082C167.37 102.31 168.853 102.563 170.342 102.762C171.614 102.934 172.901 102.952 174.174 103.126C175.494 103.305 176.724 103.729 177.81 104.518C178.081 104.715 178.437 104.322 178.162 104.125C177.257 103.468 176.258 103.004 175.163 102.764C174.11 102.532 173.027 102.486 171.956 102.401C170.562 102.292 169.187 102.057 167.805 101.844C166.374 101.623 164.926 101.444 163.503 101.175C161.649 100.827 159.998 99.9105 158.747 98.4952C157.535 97.1245 156.746 95.425 156.131 93.7178C155.671 92.4437 155.306 91.1406 154.95 89.8337C154.745 89.0719 154.544 88.3121 154.331 87.5522C154.24 87.2255 153.74 87.3937 153.83 87.7204Z" fill="#231F20" stroke="#231F20" stroke-width="0.156843" stroke-miterlimit="10"/>
<path d="M196.989 98.2786C196.866 98.2071 196.695 98.2709 196.634 98.3927C196.566 98.5261 196.624 98.675 196.748 98.7484C197.069 98.936 197.266 99.3149 197.301 99.6823C197.341 100.084 197.231 100.459 196.927 100.74C196.823 100.836 196.848 101.024 196.949 101.113C197.063 101.215 197.215 101.188 197.32 101.092C198.149 100.33 197.94 98.8374 196.989 98.2786Z" fill="#231F20" stroke="#231F20" stroke-width="0.156843" stroke-miterlimit="10"/>
<path d="M195.643 99.0772C195.39 98.8529 195.036 99.2454 195.291 99.4697C195.867 99.9801 196.012 100.854 195.664 101.529C195.027 101.865 194.275 102.02 193.584 101.751C193.034 101.535 192.581 101.09 192.345 100.548C192.212 100.241 191.709 100.403 191.845 100.717C192.142 101.397 192.686 101.968 193.385 102.236C194.273 102.575 195.199 102.387 196.01 101.941C196.086 101.9 196.123 101.84 196.132 101.778C196.6 100.9 196.389 99.7365 195.643 99.0772Z" fill="#231F20" stroke="#231F20" stroke-width="0.156843" stroke-miterlimit="10"/>
<path d="M191.077 90.984C191.149 91.0285 191.22 91.0749 191.29 91.1213C193.231 92.3664 195.226 93.741 196.707 95.5255C197.378 96.3337 198.122 97.4241 197.943 98.5378C197.869 98.9882 197.73 99.3788 197.424 99.7113C197.194 99.9607 197.506 100.315 197.736 100.063C199.847 97.7741 197.04 94.8856 195.321 93.4124C194.153 92.4128 192.891 91.5312 191.601 90.6979C191.506 90.6379 191.414 90.5741 191.319 90.5142C191.033 90.3305 190.795 90.8023 191.077 90.984Z" fill="#231F20" stroke="#231F20" stroke-width="0.156843" stroke-miterlimit="10"/>
<path d="M180.639 63.2902C180.287 63.5782 180.078 64.0113 179.85 64.3961C179.629 64.7673 179.409 65.1385 179.208 65.5232C178.678 66.5363 178.326 67.619 178.129 68.7442C177.28 68.9376 176.439 69.1986 175.614 69.4731C173.572 70.1518 171.583 71.0024 169.7 72.0426C168.485 72.7135 167.323 73.4695 166.229 74.3201C164.261 72.2785 161.365 71.2267 158.544 71.538C158.43 71.5515 158.322 71.6269 158.3 71.7449C157.8 74.3936 157.624 77.0945 157.778 79.7839C157.798 80.1242 158.324 80.0952 158.304 79.7568C158.157 77.1758 158.318 74.5908 158.784 72.0484C161.483 71.8183 164.191 72.8682 166.026 74.8653C166.1 74.9446 166.264 74.9582 166.347 74.8905C169.609 72.3075 173.535 70.5346 177.536 69.4403C177.837 69.3571 178.139 69.2759 178.442 69.2102C178.527 69.1928 178.603 69.0981 178.616 69.0169C178.769 68.0637 179.026 67.1357 179.432 66.2598C179.753 65.5696 180.15 64.92 180.538 64.2665C180.803 63.8199 181.136 63.4042 181.712 63.555C182.222 63.6904 182.63 64.1119 182.996 64.4676C183.755 65.212 184.451 66.0201 185.074 66.8824C185.793 67.8762 186.416 68.9395 186.928 70.0532C187.069 70.3567 187.572 70.1943 187.429 69.8849C186.914 68.7732 186.302 67.7118 185.596 66.7142C184.927 65.7726 184.179 64.8871 183.349 64.0751C182.951 63.6865 182.417 63.2283 181.857 63.0582C181.451 62.9383 181.031 62.9673 180.639 63.2902Z" fill="#231F20" stroke="#231F20" stroke-width="0.156843" stroke-miterlimit="10"/>
<path d="M162.874 74.5019C162.039 73.945 160.694 73.3322 159.932 74.3549C159.636 74.7513 159.532 75.2462 159.532 75.7334C159.532 76.3676 159.731 76.9959 159.667 77.6339C159.652 77.7751 159.718 77.9124 159.868 77.9472C159.994 77.9762 160.168 77.8872 160.181 77.7461C160.241 77.1699 160.125 76.615 160.075 76.0428C160.038 75.6252 160.054 75.1824 160.263 74.8054C160.79 73.8542 161.995 74.5463 162.635 74.9717C162.754 75.0509 162.928 74.9736 162.99 74.8576C163.062 74.7184 162.994 74.5811 162.874 74.5019Z" fill="#231F20" stroke="#231F20" stroke-width="0.156843" stroke-miterlimit="10"/>
<path d="M181.723 65.3859C181.619 65.3511 181.476 65.4246 181.431 65.5232C181.074 66.3371 180.714 67.1511 180.355 67.9651C180.217 68.2744 180.687 68.5161 180.824 68.2067L181.806 65.9795C182.568 66.2965 183.177 66.9462 183.444 67.7272C183.554 68.0482 184.054 67.8819 183.944 67.561C183.59 66.5266 182.757 65.7243 181.723 65.3859Z" fill="#231F20" stroke="#231F20" stroke-width="0.156843" stroke-miterlimit="10"/>
<path d="M186.679 75.6388C185.474 75.2154 183.701 75.6523 183.226 76.4876C182.995 76.8916 182.82 77.2629 182.663 77.5915C182.323 78.3069 182.098 78.7806 181.679 78.8676C181.4 78.9294 180.915 78.5544 180.354 78.1251C179.724 77.6379 178.937 77.0328 178.096 76.793C177.338 76.5746 176.459 76.9612 175.904 77.752C175.43 78.4287 175.163 79.4804 175.834 80.4065C176.923 81.9049 179.631 83.295 180.788 83.8886C180.9 83.9446 180.996 83.9949 181.078 84.0374C181.443 84.2288 181.901 84.3584 182.388 84.3584C183.071 84.3584 183.811 84.1032 184.436 83.3956C184.571 83.2448 184.722 83.0804 184.886 82.9064C185.909 81.8102 187.454 80.1533 187.846 77.7114C188.011 76.6964 187.595 75.9617 186.679 75.6388Z" fill="#BE6420"/>
<path d="M173.29 84.308C172.654 84.3409 172.176 85.0795 172.223 85.9553C172.271 86.8311 172.824 87.5117 173.46 87.4788C174.096 87.444 174.573 86.7054 174.525 85.8315C174.478 84.9557 173.926 84.2732 173.29 84.308Z" fill="#231F20"/>
<path d="M178.976 88.0473C178.734 89.0043 179.923 89.3968 180.824 89.478C180.84 89.4934 180.855 89.5089 180.873 89.5205C181.087 89.6791 181.337 89.9362 181.54 90.2455C181.574 90.3035 181.609 90.3635 181.646 90.4195C181.924 90.9145 182.054 91.5042 181.733 92.0049C181.356 92.5985 180.496 93.0586 179.689 93.1011C179.266 93.1243 178.928 93.018 178.763 92.8131C178.626 92.641 178.377 92.6139 178.206 92.7512C178.034 92.8865 178.007 93.1379 178.145 93.308C178.475 93.7218 179.04 93.9286 179.732 93.8919C180.789 93.8358 181.888 93.2365 182.402 92.4322C182.613 92.1016 182.707 91.7536 182.719 91.4094C183.03 91.5583 183.382 91.6318 183.773 91.595C184.722 91.5061 185.758 90.8043 186.292 89.8898C186.642 89.2904 186.715 88.693 186.499 88.2097L186.491 88.1923C186.396 88.0047 186.17 87.9235 185.977 88.0105C185.776 88.0995 185.687 88.3334 185.776 88.5326C185.884 88.7742 185.822 89.1222 185.609 89.4896C185.201 90.1875 184.399 90.7405 183.699 90.8062C183.106 90.8623 182.642 90.4756 182.327 90C182.296 89.942 182.261 89.8859 182.224 89.8318C182.058 89.536 181.946 89.2228 181.895 88.9695C181.946 88.8284 181.996 88.6853 182.04 88.5422C182.152 88.1826 182.247 87.8056 182.205 87.4344C182.162 87.0632 181.955 86.6939 181.607 86.5508C181.561 86.5296 181.513 86.516 181.462 86.5044C181.213 86.4503 180.94 86.4967 180.689 86.5779C180.248 86.719 179.836 86.9588 179.494 87.272C179.26 87.4866 179.053 87.7437 178.976 88.0473Z" fill="#231F20"/>
<path d="M182.425 79.4147C181.791 79.4495 181.311 80.1881 181.36 81.062C181.406 81.9378 181.961 82.6203 182.597 82.5855C183.233 82.5526 183.71 81.814 183.662 80.9382C183.616 80.0643 183.061 79.3818 182.425 79.4147Z" fill="#231F20"/>
<path d="M147.404 84.6676C147.278 84.5806 147.085 84.6657 147.021 84.7914C146.944 84.9422 147.017 85.0872 147.145 85.1742C147.268 85.2592 147.392 85.3965 147.485 85.5473C147.543 85.6382 147.566 85.6807 147.599 85.7658C147.636 85.8605 147.665 85.9572 147.688 86.0577C147.688 86.0635 147.688 86.0693 147.69 86.0732L147.702 86.1486C147.707 86.1989 147.711 86.2511 147.713 86.3013C147.717 86.4135 147.715 86.4579 147.702 86.5449C147.673 86.7344 147.628 86.862 147.543 87.0148C146.671 86.8001 145.76 86.4792 145.107 85.8373C144.995 85.729 144.933 85.6556 144.838 85.5222C144.801 85.47 144.767 85.4158 144.734 85.3617C144.716 85.3308 144.699 85.2998 144.684 85.2689L144.658 85.2225V85.2206C144.608 85.1084 144.566 84.9944 144.535 84.8745L144.511 84.774C144.502 84.7218 144.494 84.6696 144.49 84.6174C144.481 84.511 144.481 84.4066 144.484 84.3003C144.484 84.2964 144.484 84.2964 144.484 84.2945C144.484 84.2906 144.484 84.2887 144.486 84.2848L144.494 84.2229C144.5 84.1785 144.508 84.1359 144.515 84.0934C144.529 84.0296 144.517 83.9774 144.496 83.9291C144.695 83.8769 144.796 83.5405 144.562 83.3858C138.945 79.6486 133.253 75.6406 129.51 69.9004C125.543 63.8199 124.016 56.2178 125.384 49.0836C126.173 44.9791 127.908 41.0891 130.446 37.7695C130.666 37.4795 130.245 37.0966 130.023 37.3886C125.421 43.4091 123.511 51.1524 124.648 58.6346C125.205 62.3003 126.446 65.8674 128.325 69.0671C130.038 71.9865 132.283 74.556 134.794 76.8161C137.685 79.4146 140.898 81.6245 144.129 83.7763C144.049 83.8034 143.982 83.8633 143.96 83.9716C143.868 84.4182 143.91 84.8996 144.084 85.3211C144.37 86.0229 144.95 86.5372 145.6 86.8968C146.17 87.2139 146.801 87.4188 147.433 87.5735C147.557 87.6044 147.649 87.5542 147.705 87.4768C147.829 87.502 147.949 87.444 148.017 87.3338C148.282 86.8968 148.334 86.3709 148.227 85.8779C148.119 85.381 147.821 84.9538 147.404 84.6676Z" fill="#231F20" stroke="#231F20" stroke-width="0.156843" stroke-miterlimit="10"/>
<path d="M142.682 60.8793C142.383 59.841 141.944 58.8492 141.383 57.925C141.207 57.637 140.766 57.925 140.942 58.217C143.368 62.2075 143.21 67.5842 140.525 71.4123C140.332 71.6869 140.722 72.0426 140.917 71.7642C143.113 68.6321 143.738 64.5488 142.682 60.8793Z" fill="#231F20" stroke="#231F20" stroke-width="0.156843" stroke-miterlimit="10"/>
<path d="M142.632 73.6183C142.389 73.3883 141.977 73.7208 142.224 73.9548C144.892 76.4798 147.257 79.3083 149.271 82.3785C149.459 82.6608 149.863 82.3244 149.679 82.0421C147.663 78.9719 145.298 76.1433 142.632 73.6183Z" fill="#231F20" stroke="#231F20" stroke-width="0.156843" stroke-miterlimit="10"/>
<path d="M148.968 83.5887C148.844 83.5153 148.676 83.581 148.612 83.7028C148.544 83.8343 148.602 83.9851 148.726 84.0566C149.047 84.2461 149.244 84.6231 149.281 84.9904C149.32 85.3926 149.209 85.7696 148.906 86.048C148.802 86.1447 148.827 86.3322 148.927 86.4212C149.041 86.5236 149.194 86.4966 149.298 86.4018C150.128 85.6381 149.919 84.1475 148.968 83.5887Z" fill="#231F20" stroke="#231F20" stroke-width="0.156843" stroke-miterlimit="10"/>
</svg>
