<svg width="300" height="100" viewBox="0 0 300 100" fill="none" xmlns="http://www.w3.org/2000/svg">
<path d="M104.024 48.0698L99.5967 56.0564L108.871 55.9772L104.024 48.0698Z" fill="#D0A0C9"/>
<path d="M24.614 16.5825L7.94146 8.73587L9.3036 27.4693L24.614 16.5825Z" fill="#F8DD77"/>
<path d="M37.7588 61.2837C27.88 55.8078 15.4182 59.4082 9.93217 69.3053C4.4461 79.2024 8.0061 91.6613 17.8849 97.1372C27.7809 102.623 40.2331 99.0395 45.7192 89.1424C51.2052 79.2452 47.6548 66.7692 37.7588 61.2837Z" fill="#D0A0C9"/>
<path d="M141.587 59.7281C138.203 57.852 133.944 59.0918 132.074 62.4654C130.204 65.8391 131.409 70.1073 134.794 71.9833C138.161 73.8499 142.42 72.6101 144.29 69.2365C146.16 65.8629 144.955 61.5947 141.587 59.7281Z" fill="#F8DD77"/>
<path d="M86.2138 11.866C82.8464 9.99948 78.5977 11.222 76.7181 14.6129C74.8481 17.9865 76.0628 22.2375 79.4301 24.1041C82.8147 25.9802 87.0634 24.7576 88.9335 21.384C90.813 17.9931 89.5983 13.7421 86.2138 11.866Z" fill="#D0A0C9"/>
<path d="M88.5209 74.3236C85.1535 72.457 80.8952 73.6968 79.0252 77.0704C77.1551 80.444 78.3603 84.7122 81.7277 86.5788C85.1122 88.4549 89.3705 87.2151 91.2405 83.8415C93.1106 80.4679 91.9054 76.1997 88.5209 74.3236Z" fill="#F8DD77"/>
<path d="M54.8852 44.4089C53.979 44.9522 53.6843 46.1339 54.2294 47.0391C54.7744 47.9443 55.9583 48.2395 56.8645 47.6961C57.7707 47.1528 58.757 45.5564 58.2119 44.6512C57.6669 43.746 55.7914 43.8655 54.8852 44.4089Z" fill="#F8E076"/>
<path d="M48.9902 34.6185C49.8964 34.0751 50.9017 32.4835 50.3375 31.5736C49.7925 30.6684 47.917 30.7879 47.0108 31.3312C46.1046 31.8746 45.81 33.0563 46.355 33.9615C46.9 34.8667 48.0839 35.1619 48.9902 34.6185Z" fill="#F8E076"/>
<path d="M54.6099 41.3642C55.2553 42.4362 56.6302 42.779 57.7033 42.1355C58.7765 41.492 59.9342 39.6145 59.2888 38.5426C58.6624 37.4754 56.4529 37.6331 55.3797 38.2765C54.3114 38.9009 53.9645 40.2923 54.6099 41.3642Z" fill="#F8E076"/>
<path d="M54.6482 37.0617C55.7214 36.4183 56.8982 34.5455 56.248 33.4926C55.6026 32.4207 53.3978 32.5593 52.3247 33.2027C51.2515 33.8462 50.9094 35.2185 51.5548 36.2905C52.2002 37.3624 53.5942 37.7099 54.6482 37.0617Z" fill="#F8E076"/>
<path d="M50.3595 47.6741C50.9605 47.3786 51.4326 46.9497 51.7852 46.4302C51.7852 46.4302 52.9436 45.2007 52.6377 40.3264C52.6216 40.12 52.607 39.9071 52.5941 39.688C52.5555 39.3544 52.3691 39.0448 52.0921 38.8542C51.9042 38.7399 51.7227 38.6272 51.5476 38.516C47.3785 35.9582 45.7467 36.4016 45.7467 36.4016C45.1216 36.4685 44.5205 36.683 43.9959 37.0786C42.5414 38.1128 42.0663 40.0998 42.8888 41.6815C43.3575 42.5677 44.1361 43.1869 45.0002 43.4631C45.1339 43.4965 45.2199 43.6394 45.1867 43.7728C45.0254 44.6638 45.2078 45.6406 45.7718 46.4695C46.7852 47.9369 48.7616 48.4701 50.3595 47.6741Z" fill="#F8E076"/>
<path d="M142.004 32.3221C140.969 31.5234 139.479 31.7095 138.695 32.7343C137.896 33.7702 138.097 35.2485 139.133 36.0472C140.141 36.8411 142.408 37.2541 143.219 36.234C144.018 35.198 143.029 33.1048 142.004 32.3221Z" fill="#D0A0C9"/>
<path d="M150.582 21.1967C151.618 21.9953 153.885 22.4083 154.668 21.3835C155.468 20.3475 154.49 18.2703 153.454 17.4716C152.429 16.6889 150.955 16.8637 150.156 17.8997C149.357 18.9357 149.558 20.414 150.582 21.1967Z" fill="#D0A0C9"/>
<path d="M145.371 30.6316C144.43 31.8386 144.653 33.587 145.86 34.5278C147.083 35.4575 149.741 35.9534 150.671 34.7303C151.613 33.5233 150.464 31.0657 149.257 30.1249C148.035 29.1952 146.302 29.4085 145.371 30.6316Z" fill="#D0A0C9"/>
<path d="M150.31 28.7693C151.516 29.7101 154.191 30.1948 155.121 28.9718C156.063 27.7647 154.898 25.3184 153.691 24.3775C152.484 23.4367 150.735 23.6612 149.805 24.8842C148.863 26.0913 149.087 27.8396 150.31 28.7693Z" fill="#D0A0C9"/>
<path d="M136.242 28.6184C136.85 29.1455 137.556 29.508 138.285 29.6643C138.285 29.6643 140.235 30.4418 145.683 27.9127C145.908 27.8029 146.139 27.6893 146.374 27.572C146.743 27.3848 147.028 27.0427 147.1 26.6351C147.155 26.3741 147.206 26.1167 147.25 25.8631C148.335 19.9604 147.079 18.2684 147.079 18.2684C146.734 17.6053 146.222 17.011 145.53 16.567C143.695 15.3755 141.212 15.709 139.756 17.3717C138.96 18.3102 138.601 19.4659 138.681 20.6006C138.68 20.7684 138.569 20.9171 138.397 20.9428C137.292 21.1686 136.256 21.7987 135.57 22.8267C134.312 24.6364 134.628 27.1295 136.242 28.6184Z" fill="#D0A0C9"/>
<path d="M211.219 71.5066L220.616 42.5876L190.281 48.7173L211.219 71.5066Z" fill="#F8DD77"/>
<path d="M249.099 39.7103L251.897 31.0977L242.855 32.9208L249.099 39.7103Z" fill="#F8DD77"/>
<path d="M214.014 12.343C217.649 13.5244 221.558 11.5314 222.746 7.87478C223.928 4.23671 221.937 0.327072 218.302 -0.854288C214.647 -2.04168 210.739 -0.0487305 209.557 3.58934C208.369 7.24597 210.359 11.1556 214.014 12.343Z" fill="#D0A0C9"/>
<path d="M293.687 30.8489C294.163 31.7833 295.313 32.1569 296.247 31.6806C297.182 31.2043 297.555 30.0535 297.08 29.1191C296.604 28.1848 295.091 27.098 294.157 27.5743C293.223 28.0506 293.212 29.9145 293.687 30.8489Z" fill="#D0A0C9"/>
<path d="M283.585 36.0005C283.109 35.0661 281.596 33.9793 280.662 34.4556C279.728 34.9319 279.717 36.7958 280.192 37.7302C280.668 38.6646 281.818 39.0383 282.752 38.562C283.686 38.0857 284.06 36.9349 283.585 36.0005Z" fill="#D0A0C9"/>
<path d="M290.653 30.91C291.759 30.346 292.193 29.0095 291.63 27.903C291.067 26.7965 289.287 25.5205 288.181 26.0845C287.093 26.6546 287.084 28.8271 287.648 29.9336C288.211 31.0401 289.547 31.474 290.653 30.91Z" fill="#D0A0C9"/>
<path d="M286.394 30.5726C285.849 29.4721 284.07 28.1961 282.969 28.7416C281.863 29.3056 281.849 31.4966 282.412 32.6031C282.975 33.7096 284.33 34.1496 285.417 33.5796C286.523 33.0155 286.964 31.6605 286.394 30.5726Z" fill="#D0A0C9"/>
<path d="M296.609 35.5536C296.358 34.9384 295.966 34.4416 295.494 34.0626C295.494 34.0626 294.337 32.825 289.489 32.7886C289.283 32.7902 289.071 32.7898 288.853 32.7874C288.52 32.8023 288.201 32.9652 288.012 33.2321C287.873 33.406 287.749 33.5777 287.639 33.7472C284.8 37.6882 285.145 39.3395 285.145 39.3395C285.15 39.9567 285.321 40.5663 285.671 41.1314C286.595 42.6424 288.536 43.2321 290.159 42.5283C291.069 42.1262 291.736 41.399 292.069 40.5632C292.112 40.4333 292.259 40.3581 292.389 40.4003C293.279 40.6279 294.24 40.5093 295.1 40.0089C296.642 39.1144 297.288 37.19 296.609 35.5536Z" fill="#D0A0C9"/>
<path d="M280.041 75.625L295.857 66.399L279.78 56.9889L280.041 75.625Z" fill="#D0A0C9"/>
</svg>
